<mxfile host="app.diagrams.net" modified="2022-09-26T07:12:03.998Z" agent="5.0 (Windows NT 10.0; Win64; x64) AppleWebKit/537.36 (KHTML, like Gecko) Chrome/105.0.0.0 Safari/537.36" etag="oPw7nAB7-mmKw3TkGCms" version="20.3.2" type="github">
  <diagram id="kgpKYQtTHZ0yAKxKKP6v" name="제어로직">
    <mxGraphModel dx="1008" dy="603" grid="1" gridSize="8" guides="1" tooltips="1" connect="1" arrows="1" fold="1" page="1" pageScale="1" pageWidth="850" pageHeight="1100" math="0" shadow="0">
      <root>
        <mxCell id="0" />
        <mxCell id="1" parent="0" />
        <mxCell id="gUSq3eRbtcJCQc7t1ovm-4" value="" style="endArrow=none;html=1;rounded=0;" parent="1" edge="1">
          <mxGeometry width="50" height="50" relative="1" as="geometry">
            <mxPoint x="32" y="95" as="sourcePoint" />
            <mxPoint x="832" y="95" as="targetPoint" />
          </mxGeometry>
        </mxCell>
        <mxCell id="gUSq3eRbtcJCQc7t1ovm-8" value="GNU" style="text;html=1;strokeColor=none;fillColor=none;align=center;verticalAlign=middle;whiteSpace=wrap;rounded=0;fontFamily=Helvetica;fontSize=11;fontColor=default;" parent="1" vertex="1">
          <mxGeometry x="75" y="68" width="40" height="20" as="geometry" />
        </mxCell>
        <mxCell id="gUSq3eRbtcJCQc7t1ovm-10" value="" style="endArrow=none;html=1;rounded=0;labelBackgroundColor=default;fontFamily=Helvetica;fontSize=11;fontColor=default;startSize=3;endSize=3;sourcePerimeterSpacing=0;strokeColor=default;shape=connector;jumpStyle=none;jumpSize=6;" parent="1" edge="1">
          <mxGeometry width="50" height="50" relative="1" as="geometry">
            <mxPoint x="751" y="94" as="sourcePoint" />
            <mxPoint x="831" y="94" as="targetPoint" />
            <Array as="points">
              <mxPoint x="751" y="79" />
              <mxPoint x="751" y="61" />
              <mxPoint x="791" y="61" />
              <mxPoint x="831" y="61" />
            </Array>
          </mxGeometry>
        </mxCell>
        <mxCell id="8xq6pTCcTXYKqQCNeDjy-1" value="" style="endArrow=none;html=1;rounded=0;" edge="1" parent="1">
          <mxGeometry width="50" height="50" relative="1" as="geometry">
            <mxPoint x="31" y="1879" as="sourcePoint" />
            <mxPoint x="31" y="70" as="targetPoint" />
          </mxGeometry>
        </mxCell>
        <mxCell id="8xq6pTCcTXYKqQCNeDjy-4" value="" style="verticalLabelPosition=bottom;html=1;verticalAlign=top;align=center;shape=mxgraph.floorplan.windowBow;strokeWidth=1;direction=west;" vertex="1" parent="1">
          <mxGeometry x="83" y="78" width="24" height="48" as="geometry" />
        </mxCell>
        <mxCell id="8xq6pTCcTXYKqQCNeDjy-6" value="GLMR-M" style="text;html=1;strokeColor=none;fillColor=none;align=center;verticalAlign=middle;whiteSpace=wrap;rounded=0;fontFamily=Helvetica;fontSize=11;fontColor=default;" vertex="1" parent="1">
          <mxGeometry x="137" y="68" width="47" height="20" as="geometry" />
        </mxCell>
        <mxCell id="8xq6pTCcTXYKqQCNeDjy-7" value="" style="verticalLabelPosition=bottom;html=1;verticalAlign=top;align=center;shape=mxgraph.floorplan.windowBow;strokeWidth=1;direction=west;" vertex="1" parent="1">
          <mxGeometry x="147" y="78" width="24" height="48" as="geometry" />
        </mxCell>
        <mxCell id="8xq6pTCcTXYKqQCNeDjy-8" value="" style="verticalLabelPosition=bottom;html=1;verticalAlign=top;align=center;shape=mxgraph.floorplan.windowBow;strokeWidth=1;direction=west;" vertex="1" parent="1">
          <mxGeometry x="212" y="78" width="24" height="48" as="geometry" />
        </mxCell>
        <mxCell id="8xq6pTCcTXYKqQCNeDjy-9" value="" style="verticalLabelPosition=bottom;html=1;verticalAlign=top;align=center;shape=mxgraph.floorplan.windowBow;strokeWidth=1;direction=west;" vertex="1" parent="1">
          <mxGeometry x="276" y="78" width="24" height="48" as="geometry" />
        </mxCell>
        <mxCell id="8xq6pTCcTXYKqQCNeDjy-10" value="" style="verticalLabelPosition=bottom;html=1;verticalAlign=top;align=center;shape=mxgraph.floorplan.windowBow;strokeWidth=1;direction=west;" vertex="1" parent="1">
          <mxGeometry x="341" y="78" width="24" height="48" as="geometry" />
        </mxCell>
        <mxCell id="8xq6pTCcTXYKqQCNeDjy-11" value="" style="verticalLabelPosition=bottom;html=1;verticalAlign=top;align=center;shape=mxgraph.floorplan.windowBow;strokeWidth=1;direction=west;" vertex="1" parent="1">
          <mxGeometry x="405" y="78" width="24" height="48" as="geometry" />
        </mxCell>
        <mxCell id="8xq6pTCcTXYKqQCNeDjy-12" value="" style="verticalLabelPosition=bottom;html=1;verticalAlign=top;align=center;shape=mxgraph.floorplan.windowBow;strokeWidth=1;direction=west;" vertex="1" parent="1">
          <mxGeometry x="531" y="78" width="24" height="48" as="geometry" />
        </mxCell>
        <mxCell id="8xq6pTCcTXYKqQCNeDjy-13" value="" style="verticalLabelPosition=bottom;html=1;verticalAlign=top;align=center;shape=mxgraph.floorplan.windowBow;strokeWidth=1;direction=west;" vertex="1" parent="1">
          <mxGeometry x="596" y="78" width="24" height="48" as="geometry" />
        </mxCell>
        <mxCell id="8xq6pTCcTXYKqQCNeDjy-14" value="" style="verticalLabelPosition=bottom;html=1;verticalAlign=top;align=center;shape=mxgraph.floorplan.windowBow;strokeWidth=1;direction=west;" vertex="1" parent="1">
          <mxGeometry x="660" y="78" width="24" height="48" as="geometry" />
        </mxCell>
        <mxCell id="8xq6pTCcTXYKqQCNeDjy-15" value="GLMR-A" style="text;html=1;strokeColor=none;fillColor=none;align=center;verticalAlign=middle;whiteSpace=wrap;rounded=0;fontFamily=Helvetica;fontSize=11;fontColor=default;" vertex="1" parent="1">
          <mxGeometry x="202" y="68" width="47" height="20" as="geometry" />
        </mxCell>
        <mxCell id="8xq6pTCcTXYKqQCNeDjy-16" value="GEU" style="text;html=1;strokeColor=none;fillColor=none;align=center;verticalAlign=middle;whiteSpace=wrap;rounded=0;fontFamily=Helvetica;fontSize=11;fontColor=default;" vertex="1" parent="1">
          <mxGeometry x="267" y="68" width="40" height="20" as="geometry" />
        </mxCell>
        <mxCell id="8xq6pTCcTXYKqQCNeDjy-17" value="YLMR-M" style="text;html=1;strokeColor=none;fillColor=none;align=center;verticalAlign=middle;whiteSpace=wrap;rounded=0;fontFamily=Helvetica;fontSize=11;fontColor=default;" vertex="1" parent="1">
          <mxGeometry x="329" y="68" width="47" height="20" as="geometry" />
        </mxCell>
        <mxCell id="8xq6pTCcTXYKqQCNeDjy-18" value="YLMR-A" style="text;html=1;strokeColor=none;fillColor=none;align=center;verticalAlign=middle;whiteSpace=wrap;rounded=0;fontFamily=Helvetica;fontSize=11;fontColor=default;" vertex="1" parent="1">
          <mxGeometry x="394" y="67" width="47" height="20" as="geometry" />
        </mxCell>
        <mxCell id="8xq6pTCcTXYKqQCNeDjy-19" value="GE1U" style="text;html=1;strokeColor=none;fillColor=none;align=center;verticalAlign=middle;whiteSpace=wrap;rounded=0;fontFamily=Helvetica;fontSize=11;fontColor=default;" vertex="1" parent="1">
          <mxGeometry x="523" y="68" width="40" height="20" as="geometry" />
        </mxCell>
        <mxCell id="8xq6pTCcTXYKqQCNeDjy-20" value="BL2" style="text;html=1;strokeColor=none;fillColor=none;align=center;verticalAlign=middle;whiteSpace=wrap;rounded=0;fontFamily=Helvetica;fontSize=11;fontColor=default;" vertex="1" parent="1">
          <mxGeometry x="585" y="68" width="47" height="20" as="geometry" />
        </mxCell>
        <mxCell id="8xq6pTCcTXYKqQCNeDjy-21" value="BL1" style="text;html=1;strokeColor=none;fillColor=none;align=center;verticalAlign=middle;whiteSpace=wrap;rounded=0;fontFamily=Helvetica;fontSize=11;fontColor=default;" vertex="1" parent="1">
          <mxGeometry x="650" y="67" width="47" height="20" as="geometry" />
        </mxCell>
        <mxCell id="8xq6pTCcTXYKqQCNeDjy-23" value="tPR.EN" style="text;html=1;strokeColor=none;fillColor=none;align=center;verticalAlign=middle;whiteSpace=wrap;rounded=0;fontFamily=Helvetica;fontSize=11;fontColor=default;" vertex="1" parent="1">
          <mxGeometry x="765" y="69" width="47" height="20" as="geometry" />
        </mxCell>
        <mxCell id="8xq6pTCcTXYKqQCNeDjy-24" value="" style="endArrow=none;html=1;rounded=0;" edge="1" parent="1">
          <mxGeometry width="50" height="50" relative="1" as="geometry">
            <mxPoint x="31" y="158" as="sourcePoint" />
            <mxPoint x="831" y="158" as="targetPoint" />
          </mxGeometry>
        </mxCell>
        <mxCell id="8xq6pTCcTXYKqQCNeDjy-25" value="tPR.DL" style="text;html=1;strokeColor=none;fillColor=none;align=center;verticalAlign=middle;whiteSpace=wrap;rounded=0;fontFamily=Helvetica;fontSize=11;fontColor=default;" vertex="1" parent="1">
          <mxGeometry x="76" y="128" width="40" height="20" as="geometry" />
        </mxCell>
        <mxCell id="8xq6pTCcTXYKqQCNeDjy-26" value="" style="endArrow=none;html=1;rounded=0;labelBackgroundColor=default;fontFamily=Helvetica;fontSize=11;fontColor=default;startSize=3;endSize=3;sourcePerimeterSpacing=0;strokeColor=default;shape=connector;jumpStyle=none;jumpSize=6;" edge="1" parent="1">
          <mxGeometry width="50" height="50" relative="1" as="geometry">
            <mxPoint x="750.9999999999998" y="158" as="sourcePoint" />
            <mxPoint x="830.9999999999998" y="158" as="targetPoint" />
            <Array as="points">
              <mxPoint x="751" y="143" />
              <mxPoint x="751" y="125" />
              <mxPoint x="793" y="125" />
              <mxPoint x="831" y="125" />
            </Array>
          </mxGeometry>
        </mxCell>
        <mxCell id="8xq6pTCcTXYKqQCNeDjy-27" value="" style="verticalLabelPosition=bottom;html=1;verticalAlign=top;align=center;shape=mxgraph.floorplan.windowBow;strokeWidth=1;direction=east;" vertex="1" parent="1">
          <mxGeometry x="83" y="129" width="24" height="48" as="geometry" />
        </mxCell>
        <mxCell id="8xq6pTCcTXYKqQCNeDjy-44" value="PR" style="text;html=1;strokeColor=none;fillColor=none;align=center;verticalAlign=middle;whiteSpace=wrap;rounded=0;fontFamily=Helvetica;fontSize=11;fontColor=default;" vertex="1" parent="1">
          <mxGeometry x="764" y="132" width="47" height="20" as="geometry" />
        </mxCell>
        <mxCell id="8xq6pTCcTXYKqQCNeDjy-46" value="" style="endArrow=none;html=1;rounded=0;" edge="1" parent="1">
          <mxGeometry width="50" height="50" relative="1" as="geometry">
            <mxPoint x="32" y="222" as="sourcePoint" />
            <mxPoint x="832" y="222" as="targetPoint" />
          </mxGeometry>
        </mxCell>
        <mxCell id="8xq6pTCcTXYKqQCNeDjy-47" value="EMS" style="text;html=1;strokeColor=none;fillColor=none;align=center;verticalAlign=middle;whiteSpace=wrap;rounded=0;fontFamily=Helvetica;fontSize=11;fontColor=default;" vertex="1" parent="1">
          <mxGeometry x="75" y="195" width="40" height="20" as="geometry" />
        </mxCell>
        <mxCell id="8xq6pTCcTXYKqQCNeDjy-48" value="" style="endArrow=none;html=1;rounded=0;labelBackgroundColor=default;fontFamily=Helvetica;fontSize=11;fontColor=default;startSize=3;endSize=3;sourcePerimeterSpacing=0;strokeColor=default;shape=connector;jumpStyle=none;jumpSize=6;" edge="1" parent="1">
          <mxGeometry width="50" height="50" relative="1" as="geometry">
            <mxPoint x="750.9999999999998" y="222" as="sourcePoint" />
            <mxPoint x="830.9999999999998" y="222" as="targetPoint" />
            <Array as="points">
              <mxPoint x="751" y="207" />
              <mxPoint x="751" y="189" />
              <mxPoint x="791" y="189" />
              <mxPoint x="831" y="189" />
            </Array>
          </mxGeometry>
        </mxCell>
        <mxCell id="8xq6pTCcTXYKqQCNeDjy-49" value="" style="verticalLabelPosition=bottom;html=1;verticalAlign=top;align=center;shape=mxgraph.floorplan.windowBow;strokeWidth=1;direction=west;" vertex="1" parent="1">
          <mxGeometry x="83" y="205" width="24" height="48" as="geometry" />
        </mxCell>
        <mxCell id="8xq6pTCcTXYKqQCNeDjy-50" value="TR" style="text;html=1;strokeColor=none;fillColor=none;align=center;verticalAlign=middle;whiteSpace=wrap;rounded=0;fontFamily=Helvetica;fontSize=11;fontColor=default;" vertex="1" parent="1">
          <mxGeometry x="137" y="195" width="47" height="20" as="geometry" />
        </mxCell>
        <mxCell id="8xq6pTCcTXYKqQCNeDjy-51" value="" style="verticalLabelPosition=bottom;html=1;verticalAlign=top;align=center;shape=mxgraph.floorplan.windowBow;strokeWidth=1;direction=west;" vertex="1" parent="1">
          <mxGeometry x="147" y="205" width="24" height="48" as="geometry" />
        </mxCell>
        <mxCell id="8xq6pTCcTXYKqQCNeDjy-52" value="" style="verticalLabelPosition=bottom;html=1;verticalAlign=top;align=center;shape=mxgraph.floorplan.windowBow;strokeWidth=1;direction=west;" vertex="1" parent="1">
          <mxGeometry x="212" y="205" width="24" height="48" as="geometry" />
        </mxCell>
        <mxCell id="8xq6pTCcTXYKqQCNeDjy-53" value="" style="verticalLabelPosition=bottom;html=1;verticalAlign=top;align=center;shape=mxgraph.floorplan.windowBow;strokeWidth=1;direction=west;" vertex="1" parent="1">
          <mxGeometry x="469.5" y="205" width="24" height="48" as="geometry" />
        </mxCell>
        <mxCell id="8xq6pTCcTXYKqQCNeDjy-54" value="" style="verticalLabelPosition=bottom;html=1;verticalAlign=top;align=center;shape=mxgraph.floorplan.windowBow;strokeWidth=1;direction=west;" vertex="1" parent="1">
          <mxGeometry x="341" y="205" width="24" height="48" as="geometry" />
        </mxCell>
        <mxCell id="8xq6pTCcTXYKqQCNeDjy-55" value="" style="verticalLabelPosition=bottom;html=1;verticalAlign=top;align=center;shape=mxgraph.floorplan.windowBow;strokeWidth=1;direction=west;" vertex="1" parent="1">
          <mxGeometry x="405" y="205" width="24" height="48" as="geometry" />
        </mxCell>
        <mxCell id="8xq6pTCcTXYKqQCNeDjy-56" value="" style="verticalLabelPosition=bottom;html=1;verticalAlign=top;align=center;shape=mxgraph.floorplan.windowBow;strokeWidth=1;direction=west;" vertex="1" parent="1">
          <mxGeometry x="531" y="205" width="24" height="48" as="geometry" />
        </mxCell>
        <mxCell id="8xq6pTCcTXYKqQCNeDjy-59" value="DIR" style="text;html=1;strokeColor=none;fillColor=none;align=center;verticalAlign=middle;whiteSpace=wrap;rounded=0;fontFamily=Helvetica;fontSize=11;fontColor=default;" vertex="1" parent="1">
          <mxGeometry x="202" y="195" width="47" height="20" as="geometry" />
        </mxCell>
        <mxCell id="8xq6pTCcTXYKqQCNeDjy-60" value="FP" style="text;html=1;strokeColor=none;fillColor=none;align=center;verticalAlign=middle;whiteSpace=wrap;rounded=0;fontFamily=Helvetica;fontSize=11;fontColor=default;" vertex="1" parent="1">
          <mxGeometry x="331" y="195" width="40" height="20" as="geometry" />
        </mxCell>
        <mxCell id="8xq6pTCcTXYKqQCNeDjy-61" value="FP1" style="text;html=1;strokeColor=none;fillColor=none;align=center;verticalAlign=middle;whiteSpace=wrap;rounded=0;fontFamily=Helvetica;fontSize=11;fontColor=default;" vertex="1" parent="1">
          <mxGeometry x="393" y="195" width="47" height="20" as="geometry" />
        </mxCell>
        <mxCell id="8xq6pTCcTXYKqQCNeDjy-62" value="FP2" style="text;html=1;strokeColor=none;fillColor=none;align=center;verticalAlign=middle;whiteSpace=wrap;rounded=0;fontFamily=Helvetica;fontSize=11;fontColor=default;" vertex="1" parent="1">
          <mxGeometry x="458" y="194" width="47" height="20" as="geometry" />
        </mxCell>
        <mxCell id="8xq6pTCcTXYKqQCNeDjy-63" value="FP3" style="text;html=1;strokeColor=none;fillColor=none;align=center;verticalAlign=middle;whiteSpace=wrap;rounded=0;fontFamily=Helvetica;fontSize=11;fontColor=default;" vertex="1" parent="1">
          <mxGeometry x="523" y="195" width="40" height="20" as="geometry" />
        </mxCell>
        <mxCell id="8xq6pTCcTXYKqQCNeDjy-66" value="tBL1.EN" style="text;html=1;strokeColor=none;fillColor=none;align=center;verticalAlign=middle;whiteSpace=wrap;rounded=0;fontFamily=Helvetica;fontSize=11;fontColor=default;" vertex="1" parent="1">
          <mxGeometry x="765" y="196" width="47" height="20" as="geometry" />
        </mxCell>
        <mxCell id="8xq6pTCcTXYKqQCNeDjy-67" value="" style="endArrow=none;html=1;rounded=0;" edge="1" parent="1">
          <mxGeometry width="50" height="50" relative="1" as="geometry">
            <mxPoint x="288" y="223" as="sourcePoint" />
            <mxPoint x="608" y="223" as="targetPoint" />
            <Array as="points">
              <mxPoint x="288" y="276" />
              <mxPoint x="608" y="276" />
            </Array>
          </mxGeometry>
        </mxCell>
        <mxCell id="8xq6pTCcTXYKqQCNeDjy-68" value="" style="verticalLabelPosition=bottom;html=1;verticalAlign=top;align=center;shape=mxgraph.floorplan.windowBow;strokeWidth=1;direction=east;" vertex="1" parent="1">
          <mxGeometry x="340" y="246" width="24" height="48" as="geometry" />
        </mxCell>
        <mxCell id="8xq6pTCcTXYKqQCNeDjy-69" value="BL1" style="text;html=1;strokeColor=none;fillColor=none;align=center;verticalAlign=middle;whiteSpace=wrap;rounded=0;fontFamily=Helvetica;fontSize=11;fontColor=default;" vertex="1" parent="1">
          <mxGeometry x="329" y="248" width="47" height="20" as="geometry" />
        </mxCell>
        <mxCell id="8xq6pTCcTXYKqQCNeDjy-70" value="" style="endArrow=none;html=1;rounded=0;" edge="1" parent="1">
          <mxGeometry width="50" height="50" relative="1" as="geometry">
            <mxPoint x="32" y="318" as="sourcePoint" />
            <mxPoint x="832" y="318" as="targetPoint" />
          </mxGeometry>
        </mxCell>
        <mxCell id="8xq6pTCcTXYKqQCNeDjy-71" value="tBL1.DL" style="text;html=1;strokeColor=none;fillColor=none;align=center;verticalAlign=middle;whiteSpace=wrap;rounded=0;fontFamily=Helvetica;fontSize=11;fontColor=default;" vertex="1" parent="1">
          <mxGeometry x="75" y="288" width="40" height="20" as="geometry" />
        </mxCell>
        <mxCell id="8xq6pTCcTXYKqQCNeDjy-72" value="" style="endArrow=none;html=1;rounded=0;labelBackgroundColor=default;fontFamily=Helvetica;fontSize=11;fontColor=default;startSize=3;endSize=3;sourcePerimeterSpacing=0;strokeColor=default;shape=connector;jumpStyle=none;jumpSize=6;" edge="1" parent="1">
          <mxGeometry width="50" height="50" relative="1" as="geometry">
            <mxPoint x="750.9999999999998" y="318" as="sourcePoint" />
            <mxPoint x="830.9999999999998" y="318" as="targetPoint" />
            <Array as="points">
              <mxPoint x="751" y="303" />
              <mxPoint x="751" y="285" />
              <mxPoint x="791" y="285" />
              <mxPoint x="831" y="285" />
            </Array>
          </mxGeometry>
        </mxCell>
        <mxCell id="8xq6pTCcTXYKqQCNeDjy-73" value="" style="verticalLabelPosition=bottom;html=1;verticalAlign=top;align=center;shape=mxgraph.floorplan.windowBow;strokeWidth=1;direction=east;" vertex="1" parent="1">
          <mxGeometry x="83" y="288" width="24" height="48" as="geometry" />
        </mxCell>
        <mxCell id="8xq6pTCcTXYKqQCNeDjy-77" value="" style="verticalLabelPosition=bottom;html=1;verticalAlign=top;align=center;shape=mxgraph.floorplan.windowBow;strokeWidth=1;direction=west;" vertex="1" parent="1">
          <mxGeometry x="402.5" y="301" width="24" height="48" as="geometry" />
        </mxCell>
        <mxCell id="8xq6pTCcTXYKqQCNeDjy-78" value="" style="verticalLabelPosition=bottom;html=1;verticalAlign=top;align=center;shape=mxgraph.floorplan.windowBow;strokeWidth=1;direction=west;" vertex="1" parent="1">
          <mxGeometry x="277" y="301" width="24" height="48" as="geometry" />
        </mxCell>
        <mxCell id="8xq6pTCcTXYKqQCNeDjy-82" value="CP" style="text;html=1;strokeColor=none;fillColor=none;align=center;verticalAlign=middle;whiteSpace=wrap;rounded=0;fontFamily=Helvetica;fontSize=11;fontColor=default;" vertex="1" parent="1">
          <mxGeometry x="267" y="291" width="40" height="20" as="geometry" />
        </mxCell>
        <mxCell id="8xq6pTCcTXYKqQCNeDjy-84" value="전방.T-SW" style="text;html=1;strokeColor=none;fillColor=none;align=center;verticalAlign=middle;whiteSpace=wrap;rounded=0;fontFamily=Helvetica;fontSize=11;fontColor=default;" vertex="1" parent="1">
          <mxGeometry x="385" y="290" width="62" height="20" as="geometry" />
        </mxCell>
        <mxCell id="8xq6pTCcTXYKqQCNeDjy-86" value="tBL1.EN" style="text;html=1;strokeColor=none;fillColor=none;align=center;verticalAlign=middle;whiteSpace=wrap;rounded=0;fontFamily=Helvetica;fontSize=11;fontColor=default;" vertex="1" parent="1">
          <mxGeometry x="765" y="292" width="47" height="20" as="geometry" />
        </mxCell>
        <mxCell id="8xq6pTCcTXYKqQCNeDjy-87" value="" style="endArrow=none;html=1;rounded=0;" edge="1" parent="1">
          <mxGeometry width="50" height="50" relative="1" as="geometry">
            <mxPoint x="224" y="319" as="sourcePoint" />
            <mxPoint x="352" y="319" as="targetPoint" />
            <Array as="points">
              <mxPoint x="224" y="367" />
              <mxPoint x="352" y="367" />
            </Array>
          </mxGeometry>
        </mxCell>
        <mxCell id="8xq6pTCcTXYKqQCNeDjy-88" value="" style="verticalLabelPosition=bottom;html=1;verticalAlign=top;align=center;shape=mxgraph.floorplan.windowBow;strokeWidth=1;direction=east;" vertex="1" parent="1">
          <mxGeometry x="276" y="334" width="24" height="48" as="geometry" />
        </mxCell>
        <mxCell id="8xq6pTCcTXYKqQCNeDjy-89" value="ECP" style="text;html=1;strokeColor=none;fillColor=none;align=center;verticalAlign=middle;whiteSpace=wrap;rounded=0;fontFamily=Helvetica;fontSize=11;fontColor=default;" vertex="1" parent="1">
          <mxGeometry x="265" y="336" width="47" height="20" as="geometry" />
        </mxCell>
        <mxCell id="8xq6pTCcTXYKqQCNeDjy-91" value="" style="endArrow=none;html=1;rounded=0;" edge="1" parent="1">
          <mxGeometry width="50" height="50" relative="1" as="geometry">
            <mxPoint x="32" y="414.9999999999999" as="sourcePoint" />
            <mxPoint x="832" y="414.9999999999999" as="targetPoint" />
          </mxGeometry>
        </mxCell>
        <mxCell id="8xq6pTCcTXYKqQCNeDjy-92" value="TR" style="text;html=1;strokeColor=none;fillColor=none;align=center;verticalAlign=middle;whiteSpace=wrap;rounded=0;fontFamily=Helvetica;fontSize=11;fontColor=default;" vertex="1" parent="1">
          <mxGeometry x="75" y="385" width="40" height="20" as="geometry" />
        </mxCell>
        <mxCell id="8xq6pTCcTXYKqQCNeDjy-93" value="" style="endArrow=none;html=1;rounded=0;labelBackgroundColor=default;fontFamily=Helvetica;fontSize=11;fontColor=default;startSize=3;endSize=3;sourcePerimeterSpacing=0;strokeColor=default;shape=connector;jumpStyle=none;jumpSize=6;" edge="1" parent="1">
          <mxGeometry width="50" height="50" relative="1" as="geometry">
            <mxPoint x="750.9999999999998" y="415.0000000000001" as="sourcePoint" />
            <mxPoint x="830.9999999999998" y="415.0000000000001" as="targetPoint" />
            <Array as="points">
              <mxPoint x="751" y="400" />
              <mxPoint x="751" y="382" />
              <mxPoint x="791" y="382" />
              <mxPoint x="831" y="382" />
            </Array>
          </mxGeometry>
        </mxCell>
        <mxCell id="8xq6pTCcTXYKqQCNeDjy-94" value="" style="verticalLabelPosition=bottom;html=1;verticalAlign=top;align=center;shape=mxgraph.floorplan.windowBow;strokeWidth=1;direction=east;" vertex="1" parent="1">
          <mxGeometry x="83" y="385" width="24" height="48" as="geometry" />
        </mxCell>
        <mxCell id="8xq6pTCcTXYKqQCNeDjy-96" value="" style="verticalLabelPosition=bottom;html=1;verticalAlign=top;align=center;shape=mxgraph.floorplan.windowBow;strokeWidth=1;direction=west;" vertex="1" parent="1">
          <mxGeometry x="147" y="398" width="24" height="48" as="geometry" />
        </mxCell>
        <mxCell id="8xq6pTCcTXYKqQCNeDjy-97" value="DIR" style="text;html=1;strokeColor=none;fillColor=none;align=center;verticalAlign=middle;whiteSpace=wrap;rounded=0;fontFamily=Helvetica;fontSize=11;fontColor=default;" vertex="1" parent="1">
          <mxGeometry x="137" y="386" width="40" height="20" as="geometry" />
        </mxCell>
        <mxCell id="8xq6pTCcTXYKqQCNeDjy-99" value="tFMPR.EN" style="text;html=1;strokeColor=none;fillColor=none;align=center;verticalAlign=middle;whiteSpace=wrap;rounded=0;fontFamily=Helvetica;fontSize=11;fontColor=default;" vertex="1" parent="1">
          <mxGeometry x="765" y="389" width="47" height="20" as="geometry" />
        </mxCell>
        <mxCell id="8xq6pTCcTXYKqQCNeDjy-100" value="" style="endArrow=none;html=1;rounded=0;" edge="1" parent="1">
          <mxGeometry width="50" height="50" relative="1" as="geometry">
            <mxPoint x="32" y="477.9999999999999" as="sourcePoint" />
            <mxPoint x="832" y="477.9999999999999" as="targetPoint" />
          </mxGeometry>
        </mxCell>
        <mxCell id="8xq6pTCcTXYKqQCNeDjy-102" value="" style="endArrow=none;html=1;rounded=0;labelBackgroundColor=default;fontFamily=Helvetica;fontSize=11;fontColor=default;startSize=3;endSize=3;sourcePerimeterSpacing=0;strokeColor=default;shape=connector;jumpStyle=none;jumpSize=6;" edge="1" parent="1">
          <mxGeometry width="50" height="50" relative="1" as="geometry">
            <mxPoint x="750.9999999999998" y="477.0000000000001" as="sourcePoint" />
            <mxPoint x="830.9999999999998" y="477.0000000000001" as="targetPoint" />
            <Array as="points">
              <mxPoint x="751" y="462" />
              <mxPoint x="751" y="444" />
              <mxPoint x="791" y="444" />
              <mxPoint x="831" y="444" />
            </Array>
          </mxGeometry>
        </mxCell>
        <mxCell id="8xq6pTCcTXYKqQCNeDjy-106" value="tFMPR.EN" style="text;html=1;strokeColor=none;fillColor=none;align=center;verticalAlign=middle;whiteSpace=wrap;rounded=0;fontFamily=Helvetica;fontSize=11;fontColor=default;" vertex="1" parent="1">
          <mxGeometry x="139" y="449" width="40" height="20" as="geometry" />
        </mxCell>
        <mxCell id="8xq6pTCcTXYKqQCNeDjy-108" value="FMPR" style="text;html=1;strokeColor=none;fillColor=none;align=center;verticalAlign=middle;whiteSpace=wrap;rounded=0;fontFamily=Helvetica;fontSize=11;fontColor=default;" vertex="1" parent="1">
          <mxGeometry x="765" y="452" width="47" height="20" as="geometry" />
        </mxCell>
        <mxCell id="8xq6pTCcTXYKqQCNeDjy-109" value="" style="endArrow=none;html=1;rounded=0;" edge="1" parent="1">
          <mxGeometry width="50" height="50" relative="1" as="geometry">
            <mxPoint x="96" y="479" as="sourcePoint" />
            <mxPoint x="224" y="479" as="targetPoint" />
            <Array as="points">
              <mxPoint x="96" y="526" />
              <mxPoint x="224" y="526" />
            </Array>
          </mxGeometry>
        </mxCell>
        <mxCell id="8xq6pTCcTXYKqQCNeDjy-110" value="tFMPR.DL" style="text;html=1;strokeColor=none;fillColor=none;align=center;verticalAlign=middle;whiteSpace=wrap;rounded=0;fontFamily=Helvetica;fontSize=11;fontColor=default;" vertex="1" parent="1">
          <mxGeometry x="138" y="497" width="47" height="20" as="geometry" />
        </mxCell>
        <mxCell id="8xq6pTCcTXYKqQCNeDjy-111" value="" style="verticalLabelPosition=bottom;html=1;verticalAlign=top;align=center;shape=mxgraph.floorplan.windowBow;strokeWidth=1;direction=east;" vertex="1" parent="1">
          <mxGeometry x="148" y="496" width="24" height="48" as="geometry" />
        </mxCell>
        <mxCell id="8xq6pTCcTXYKqQCNeDjy-112" value="" style="verticalLabelPosition=bottom;html=1;verticalAlign=top;align=center;shape=mxgraph.floorplan.windowBow;strokeWidth=1;direction=east;" vertex="1" parent="1">
          <mxGeometry x="147" y="447" width="24" height="48" as="geometry" />
        </mxCell>
        <mxCell id="8xq6pTCcTXYKqQCNeDjy-113" value="" style="endArrow=none;html=1;rounded=0;" edge="1" parent="1">
          <mxGeometry width="50" height="50" relative="1" as="geometry">
            <mxPoint x="32" y="574" as="sourcePoint" />
            <mxPoint x="832" y="574" as="targetPoint" />
          </mxGeometry>
        </mxCell>
        <mxCell id="8xq6pTCcTXYKqQCNeDjy-114" value="TR" style="text;html=1;strokeColor=none;fillColor=none;align=center;verticalAlign=middle;whiteSpace=wrap;rounded=0;fontFamily=Helvetica;fontSize=11;fontColor=default;" vertex="1" parent="1">
          <mxGeometry x="75" y="544" width="40" height="20" as="geometry" />
        </mxCell>
        <mxCell id="8xq6pTCcTXYKqQCNeDjy-115" value="" style="endArrow=none;html=1;rounded=0;labelBackgroundColor=default;fontFamily=Helvetica;fontSize=11;fontColor=default;startSize=3;endSize=3;sourcePerimeterSpacing=0;strokeColor=default;shape=connector;jumpStyle=none;jumpSize=6;" edge="1" parent="1">
          <mxGeometry width="50" height="50" relative="1" as="geometry">
            <mxPoint x="750.9999999999998" y="574" as="sourcePoint" />
            <mxPoint x="830.9999999999998" y="574" as="targetPoint" />
            <Array as="points">
              <mxPoint x="751" y="559" />
              <mxPoint x="751" y="541" />
              <mxPoint x="791" y="541" />
              <mxPoint x="831" y="541" />
            </Array>
          </mxGeometry>
        </mxCell>
        <mxCell id="8xq6pTCcTXYKqQCNeDjy-116" value="" style="verticalLabelPosition=bottom;html=1;verticalAlign=top;align=center;shape=mxgraph.floorplan.windowBow;strokeWidth=1;direction=east;" vertex="1" parent="1">
          <mxGeometry x="83" y="544" width="24" height="48" as="geometry" />
        </mxCell>
        <mxCell id="8xq6pTCcTXYKqQCNeDjy-117" value="" style="verticalLabelPosition=bottom;html=1;verticalAlign=top;align=center;shape=mxgraph.floorplan.windowBow;strokeWidth=1;direction=west;" vertex="1" parent="1">
          <mxGeometry x="147" y="556" width="24" height="48" as="geometry" />
        </mxCell>
        <mxCell id="8xq6pTCcTXYKqQCNeDjy-118" value="DIR" style="text;html=1;strokeColor=none;fillColor=none;align=center;verticalAlign=middle;whiteSpace=wrap;rounded=0;fontFamily=Helvetica;fontSize=11;fontColor=default;" vertex="1" parent="1">
          <mxGeometry x="137" y="545" width="40" height="20" as="geometry" />
        </mxCell>
        <mxCell id="8xq6pTCcTXYKqQCNeDjy-119" value="tBL2.EN" style="text;html=1;strokeColor=none;fillColor=none;align=center;verticalAlign=middle;whiteSpace=wrap;rounded=0;fontFamily=Helvetica;fontSize=11;fontColor=default;" vertex="1" parent="1">
          <mxGeometry x="765" y="548" width="47" height="20" as="geometry" />
        </mxCell>
        <mxCell id="8xq6pTCcTXYKqQCNeDjy-120" value="" style="endArrow=none;html=1;rounded=0;" edge="1" parent="1">
          <mxGeometry width="50" height="50" relative="1" as="geometry">
            <mxPoint x="32" y="639" as="sourcePoint" />
            <mxPoint x="832" y="639" as="targetPoint" />
          </mxGeometry>
        </mxCell>
        <mxCell id="8xq6pTCcTXYKqQCNeDjy-121" value="" style="endArrow=none;html=1;rounded=0;labelBackgroundColor=default;fontFamily=Helvetica;fontSize=11;fontColor=default;startSize=3;endSize=3;sourcePerimeterSpacing=0;strokeColor=default;shape=connector;jumpStyle=none;jumpSize=6;" edge="1" parent="1">
          <mxGeometry width="50" height="50" relative="1" as="geometry">
            <mxPoint x="750.9999999999998" y="638" as="sourcePoint" />
            <mxPoint x="830.9999999999998" y="638" as="targetPoint" />
            <Array as="points">
              <mxPoint x="751" y="623" />
              <mxPoint x="751" y="605" />
              <mxPoint x="791" y="605" />
              <mxPoint x="831" y="605" />
            </Array>
          </mxGeometry>
        </mxCell>
        <mxCell id="8xq6pTCcTXYKqQCNeDjy-122" value="tBL2.EN" style="text;html=1;strokeColor=none;fillColor=none;align=center;verticalAlign=middle;whiteSpace=wrap;rounded=0;fontFamily=Helvetica;fontSize=11;fontColor=default;" vertex="1" parent="1">
          <mxGeometry x="139" y="610" width="40" height="20" as="geometry" />
        </mxCell>
        <mxCell id="8xq6pTCcTXYKqQCNeDjy-123" value="BL2" style="text;html=1;strokeColor=none;fillColor=none;align=center;verticalAlign=middle;whiteSpace=wrap;rounded=0;fontFamily=Helvetica;fontSize=11;fontColor=default;" vertex="1" parent="1">
          <mxGeometry x="765" y="613" width="47" height="20" as="geometry" />
        </mxCell>
        <mxCell id="8xq6pTCcTXYKqQCNeDjy-124" value="" style="endArrow=none;html=1;rounded=0;" edge="1" parent="1">
          <mxGeometry width="50" height="50" relative="1" as="geometry">
            <mxPoint x="96" y="640" as="sourcePoint" />
            <mxPoint x="224" y="640" as="targetPoint" />
            <Array as="points">
              <mxPoint x="96" y="688" />
              <mxPoint x="224" y="688" />
            </Array>
          </mxGeometry>
        </mxCell>
        <mxCell id="8xq6pTCcTXYKqQCNeDjy-125" value="tBL2.DL" style="text;html=1;strokeColor=none;fillColor=none;align=center;verticalAlign=middle;whiteSpace=wrap;rounded=0;fontFamily=Helvetica;fontSize=11;fontColor=default;" vertex="1" parent="1">
          <mxGeometry x="137" y="658" width="47" height="20" as="geometry" />
        </mxCell>
        <mxCell id="8xq6pTCcTXYKqQCNeDjy-126" value="" style="verticalLabelPosition=bottom;html=1;verticalAlign=top;align=center;shape=mxgraph.floorplan.windowBow;strokeWidth=1;direction=east;" vertex="1" parent="1">
          <mxGeometry x="147" y="657" width="24" height="48" as="geometry" />
        </mxCell>
        <mxCell id="8xq6pTCcTXYKqQCNeDjy-127" value="" style="verticalLabelPosition=bottom;html=1;verticalAlign=top;align=center;shape=mxgraph.floorplan.windowBow;strokeWidth=1;direction=east;" vertex="1" parent="1">
          <mxGeometry x="147" y="608" width="24" height="48" as="geometry" />
        </mxCell>
        <mxCell id="8xq6pTCcTXYKqQCNeDjy-128" value="BL1" style="text;html=1;strokeColor=none;fillColor=none;align=center;verticalAlign=middle;whiteSpace=wrap;rounded=0;fontFamily=Helvetica;fontSize=11;fontColor=default;" vertex="1" parent="1">
          <mxGeometry x="204" y="543" width="40" height="20" as="geometry" />
        </mxCell>
        <mxCell id="8xq6pTCcTXYKqQCNeDjy-129" value="" style="verticalLabelPosition=bottom;html=1;verticalAlign=top;align=center;shape=mxgraph.floorplan.windowBow;strokeWidth=1;direction=east;" vertex="1" parent="1">
          <mxGeometry x="212" y="543" width="24" height="48" as="geometry" />
        </mxCell>
        <mxCell id="8xq6pTCcTXYKqQCNeDjy-130" value="EH3" style="text;html=1;strokeColor=none;fillColor=none;align=center;verticalAlign=middle;whiteSpace=wrap;rounded=0;fontFamily=Helvetica;fontSize=11;fontColor=default;" vertex="1" parent="1">
          <mxGeometry x="268" y="544" width="40" height="20" as="geometry" />
        </mxCell>
        <mxCell id="8xq6pTCcTXYKqQCNeDjy-131" value="" style="verticalLabelPosition=bottom;html=1;verticalAlign=top;align=center;shape=mxgraph.floorplan.windowBow;strokeWidth=1;direction=east;" vertex="1" parent="1">
          <mxGeometry x="276" y="543" width="24" height="48" as="geometry" />
        </mxCell>
        <mxCell id="8xq6pTCcTXYKqQCNeDjy-132" value="" style="endArrow=none;html=1;rounded=0;" edge="1" parent="1">
          <mxGeometry width="50" height="50" relative="1" as="geometry">
            <mxPoint x="31.999999999999773" y="734" as="sourcePoint" />
            <mxPoint x="832" y="734" as="targetPoint" />
          </mxGeometry>
        </mxCell>
        <mxCell id="8xq6pTCcTXYKqQCNeDjy-133" value="TR" style="text;html=1;strokeColor=none;fillColor=none;align=center;verticalAlign=middle;whiteSpace=wrap;rounded=0;fontFamily=Helvetica;fontSize=11;fontColor=default;" vertex="1" parent="1">
          <mxGeometry x="75" y="704" width="40" height="20" as="geometry" />
        </mxCell>
        <mxCell id="8xq6pTCcTXYKqQCNeDjy-134" value="" style="endArrow=none;html=1;rounded=0;labelBackgroundColor=default;fontFamily=Helvetica;fontSize=11;fontColor=default;startSize=3;endSize=3;sourcePerimeterSpacing=0;strokeColor=default;shape=connector;jumpStyle=none;jumpSize=6;" edge="1" parent="1">
          <mxGeometry width="50" height="50" relative="1" as="geometry">
            <mxPoint x="751" y="733" as="sourcePoint" />
            <mxPoint x="831" y="733" as="targetPoint" />
            <Array as="points">
              <mxPoint x="751" y="718" />
              <mxPoint x="751" y="700" />
              <mxPoint x="791" y="700" />
              <mxPoint x="831" y="700" />
            </Array>
          </mxGeometry>
        </mxCell>
        <mxCell id="8xq6pTCcTXYKqQCNeDjy-135" value="" style="verticalLabelPosition=bottom;html=1;verticalAlign=top;align=center;shape=mxgraph.floorplan.windowBow;strokeWidth=1;direction=east;" vertex="1" parent="1">
          <mxGeometry x="83" y="704" width="24" height="48" as="geometry" />
        </mxCell>
        <mxCell id="8xq6pTCcTXYKqQCNeDjy-136" value="" style="verticalLabelPosition=bottom;html=1;verticalAlign=top;align=center;shape=mxgraph.floorplan.windowBow;strokeWidth=1;direction=west;" vertex="1" parent="1">
          <mxGeometry x="147" y="716" width="24" height="48" as="geometry" />
        </mxCell>
        <mxCell id="8xq6pTCcTXYKqQCNeDjy-137" value="DIR" style="text;html=1;strokeColor=none;fillColor=none;align=center;verticalAlign=middle;whiteSpace=wrap;rounded=0;fontFamily=Helvetica;fontSize=11;fontColor=default;" vertex="1" parent="1">
          <mxGeometry x="137" y="705" width="40" height="20" as="geometry" />
        </mxCell>
        <mxCell id="8xq6pTCcTXYKqQCNeDjy-138" value="tFP.EN" style="text;html=1;strokeColor=none;fillColor=none;align=center;verticalAlign=middle;whiteSpace=wrap;rounded=0;fontFamily=Helvetica;fontSize=11;fontColor=default;" vertex="1" parent="1">
          <mxGeometry x="765" y="708" width="47" height="20" as="geometry" />
        </mxCell>
        <mxCell id="8xq6pTCcTXYKqQCNeDjy-139" value="" style="endArrow=none;html=1;rounded=0;" edge="1" parent="1">
          <mxGeometry width="50" height="50" relative="1" as="geometry">
            <mxPoint x="31.999999999999773" y="798" as="sourcePoint" />
            <mxPoint x="832" y="798" as="targetPoint" />
          </mxGeometry>
        </mxCell>
        <mxCell id="8xq6pTCcTXYKqQCNeDjy-140" value="" style="endArrow=none;html=1;rounded=0;labelBackgroundColor=default;fontFamily=Helvetica;fontSize=11;fontColor=default;startSize=3;endSize=3;sourcePerimeterSpacing=0;strokeColor=default;shape=connector;jumpStyle=none;jumpSize=6;" edge="1" parent="1">
          <mxGeometry width="50" height="50" relative="1" as="geometry">
            <mxPoint x="751" y="797.9999999999998" as="sourcePoint" />
            <mxPoint x="831" y="797.9999999999998" as="targetPoint" />
            <Array as="points">
              <mxPoint x="751" y="783" />
              <mxPoint x="751" y="765" />
              <mxPoint x="791" y="765" />
              <mxPoint x="831" y="765" />
            </Array>
          </mxGeometry>
        </mxCell>
        <mxCell id="8xq6pTCcTXYKqQCNeDjy-141" value="tFP.EN" style="text;html=1;strokeColor=none;fillColor=none;align=center;verticalAlign=middle;whiteSpace=wrap;rounded=0;fontFamily=Helvetica;fontSize=11;fontColor=default;" vertex="1" parent="1">
          <mxGeometry x="139" y="769" width="40" height="20" as="geometry" />
        </mxCell>
        <mxCell id="8xq6pTCcTXYKqQCNeDjy-142" value="FP" style="text;html=1;strokeColor=none;fillColor=none;align=center;verticalAlign=middle;whiteSpace=wrap;rounded=0;fontFamily=Helvetica;fontSize=11;fontColor=default;" vertex="1" parent="1">
          <mxGeometry x="765" y="772" width="47" height="20" as="geometry" />
        </mxCell>
        <mxCell id="8xq6pTCcTXYKqQCNeDjy-143" value="" style="endArrow=none;html=1;rounded=0;" edge="1" parent="1">
          <mxGeometry width="50" height="50" relative="1" as="geometry">
            <mxPoint x="96" y="799" as="sourcePoint" />
            <mxPoint x="224" y="799" as="targetPoint" />
            <Array as="points">
              <mxPoint x="96" y="845" />
              <mxPoint x="224" y="845" />
            </Array>
          </mxGeometry>
        </mxCell>
        <mxCell id="8xq6pTCcTXYKqQCNeDjy-144" value="tFP.DL" style="text;html=1;strokeColor=none;fillColor=none;align=center;verticalAlign=middle;whiteSpace=wrap;rounded=0;fontFamily=Helvetica;fontSize=11;fontColor=default;" vertex="1" parent="1">
          <mxGeometry x="137" y="814" width="47" height="20" as="geometry" />
        </mxCell>
        <mxCell id="8xq6pTCcTXYKqQCNeDjy-145" value="" style="verticalLabelPosition=bottom;html=1;verticalAlign=top;align=center;shape=mxgraph.floorplan.windowBow;strokeWidth=1;direction=east;" vertex="1" parent="1">
          <mxGeometry x="147" y="815" width="24" height="48" as="geometry" />
        </mxCell>
        <mxCell id="8xq6pTCcTXYKqQCNeDjy-146" value="" style="verticalLabelPosition=bottom;html=1;verticalAlign=top;align=center;shape=mxgraph.floorplan.windowBow;strokeWidth=1;direction=east;" vertex="1" parent="1">
          <mxGeometry x="147" y="767" width="24" height="48" as="geometry" />
        </mxCell>
        <mxCell id="8xq6pTCcTXYKqQCNeDjy-147" value="BL1" style="text;html=1;strokeColor=none;fillColor=none;align=center;verticalAlign=middle;whiteSpace=wrap;rounded=0;fontFamily=Helvetica;fontSize=11;fontColor=default;" vertex="1" parent="1">
          <mxGeometry x="204" y="703" width="40" height="20" as="geometry" />
        </mxCell>
        <mxCell id="8xq6pTCcTXYKqQCNeDjy-148" value="" style="verticalLabelPosition=bottom;html=1;verticalAlign=top;align=center;shape=mxgraph.floorplan.windowBow;strokeWidth=1;direction=east;" vertex="1" parent="1">
          <mxGeometry x="212" y="703" width="24" height="48" as="geometry" />
        </mxCell>
        <mxCell id="8xq6pTCcTXYKqQCNeDjy-149" value="EH3" style="text;html=1;strokeColor=none;fillColor=none;align=center;verticalAlign=middle;whiteSpace=wrap;rounded=0;fontFamily=Helvetica;fontSize=11;fontColor=default;" vertex="1" parent="1">
          <mxGeometry x="268" y="704" width="40" height="20" as="geometry" />
        </mxCell>
        <mxCell id="8xq6pTCcTXYKqQCNeDjy-150" value="" style="verticalLabelPosition=bottom;html=1;verticalAlign=top;align=center;shape=mxgraph.floorplan.windowBow;strokeWidth=1;direction=west;" vertex="1" parent="1">
          <mxGeometry x="275" y="716" width="24" height="48" as="geometry" />
        </mxCell>
        <mxCell id="8xq6pTCcTXYKqQCNeDjy-151" value="" style="endArrow=none;html=1;rounded=0;" edge="1" parent="1">
          <mxGeometry width="50" height="50" relative="1" as="geometry">
            <mxPoint x="31.999999999999773" y="895" as="sourcePoint" />
            <mxPoint x="832" y="895" as="targetPoint" />
          </mxGeometry>
        </mxCell>
        <mxCell id="8xq6pTCcTXYKqQCNeDjy-152" value="TR" style="text;html=1;strokeColor=none;fillColor=none;align=center;verticalAlign=middle;whiteSpace=wrap;rounded=0;fontFamily=Helvetica;fontSize=11;fontColor=default;" vertex="1" parent="1">
          <mxGeometry x="75" y="865" width="40" height="20" as="geometry" />
        </mxCell>
        <mxCell id="8xq6pTCcTXYKqQCNeDjy-153" value="" style="endArrow=none;html=1;rounded=0;labelBackgroundColor=default;fontFamily=Helvetica;fontSize=11;fontColor=default;startSize=3;endSize=3;sourcePerimeterSpacing=0;strokeColor=default;shape=connector;jumpStyle=none;jumpSize=6;" edge="1" parent="1">
          <mxGeometry width="50" height="50" relative="1" as="geometry">
            <mxPoint x="751" y="894" as="sourcePoint" />
            <mxPoint x="831" y="894" as="targetPoint" />
            <Array as="points">
              <mxPoint x="751" y="879" />
              <mxPoint x="751" y="861" />
              <mxPoint x="791" y="861" />
              <mxPoint x="831" y="861" />
            </Array>
          </mxGeometry>
        </mxCell>
        <mxCell id="8xq6pTCcTXYKqQCNeDjy-154" value="" style="verticalLabelPosition=bottom;html=1;verticalAlign=top;align=center;shape=mxgraph.floorplan.windowBow;strokeWidth=1;direction=east;" vertex="1" parent="1">
          <mxGeometry x="83" y="865" width="24" height="48" as="geometry" />
        </mxCell>
        <mxCell id="8xq6pTCcTXYKqQCNeDjy-155" value="DIR" style="text;html=1;strokeColor=none;fillColor=none;align=center;verticalAlign=middle;whiteSpace=wrap;rounded=0;fontFamily=Helvetica;fontSize=11;fontColor=default;" vertex="1" parent="1">
          <mxGeometry x="137" y="866" width="40" height="20" as="geometry" />
        </mxCell>
        <mxCell id="8xq6pTCcTXYKqQCNeDjy-156" value="FP1" style="text;html=1;strokeColor=none;fillColor=none;align=center;verticalAlign=middle;whiteSpace=wrap;rounded=0;fontFamily=Helvetica;fontSize=11;fontColor=default;" vertex="1" parent="1">
          <mxGeometry x="765" y="869" width="47" height="20" as="geometry" />
        </mxCell>
        <mxCell id="8xq6pTCcTXYKqQCNeDjy-157" value="BL1" style="text;html=1;strokeColor=none;fillColor=none;align=center;verticalAlign=middle;whiteSpace=wrap;rounded=0;fontFamily=Helvetica;fontSize=11;fontColor=default;" vertex="1" parent="1">
          <mxGeometry x="204" y="864" width="40" height="20" as="geometry" />
        </mxCell>
        <mxCell id="8xq6pTCcTXYKqQCNeDjy-158" value="" style="verticalLabelPosition=bottom;html=1;verticalAlign=top;align=center;shape=mxgraph.floorplan.windowBow;strokeWidth=1;direction=east;" vertex="1" parent="1">
          <mxGeometry x="212" y="864" width="24" height="48" as="geometry" />
        </mxCell>
        <mxCell id="8xq6pTCcTXYKqQCNeDjy-159" value="BL2" style="text;html=1;strokeColor=none;fillColor=none;align=center;verticalAlign=middle;whiteSpace=wrap;rounded=0;fontFamily=Helvetica;fontSize=11;fontColor=default;" vertex="1" parent="1">
          <mxGeometry x="268" y="865" width="40" height="20" as="geometry" />
        </mxCell>
        <mxCell id="8xq6pTCcTXYKqQCNeDjy-160" value="" style="verticalLabelPosition=bottom;html=1;verticalAlign=top;align=center;shape=mxgraph.floorplan.windowBow;strokeWidth=1;direction=east;" vertex="1" parent="1">
          <mxGeometry x="276" y="864" width="24" height="48" as="geometry" />
        </mxCell>
        <mxCell id="8xq6pTCcTXYKqQCNeDjy-161" value="" style="verticalLabelPosition=bottom;html=1;verticalAlign=top;align=center;shape=mxgraph.floorplan.windowBow;strokeWidth=1;direction=west;" vertex="1" parent="1">
          <mxGeometry x="147" y="877" width="24" height="48" as="geometry" />
        </mxCell>
        <mxCell id="8xq6pTCcTXYKqQCNeDjy-162" value="" style="endArrow=none;html=1;rounded=0;" edge="1" parent="1">
          <mxGeometry width="50" height="50" relative="1" as="geometry">
            <mxPoint x="31.999999999999773" y="958" as="sourcePoint" />
            <mxPoint x="832" y="958" as="targetPoint" />
          </mxGeometry>
        </mxCell>
        <mxCell id="8xq6pTCcTXYKqQCNeDjy-163" value="TR" style="text;html=1;strokeColor=none;fillColor=none;align=center;verticalAlign=middle;whiteSpace=wrap;rounded=0;fontFamily=Helvetica;fontSize=11;fontColor=default;" vertex="1" parent="1">
          <mxGeometry x="75" y="928" width="40" height="20" as="geometry" />
        </mxCell>
        <mxCell id="8xq6pTCcTXYKqQCNeDjy-164" value="" style="endArrow=none;html=1;rounded=0;labelBackgroundColor=default;fontFamily=Helvetica;fontSize=11;fontColor=default;startSize=3;endSize=3;sourcePerimeterSpacing=0;strokeColor=default;shape=connector;jumpStyle=none;jumpSize=6;" edge="1" parent="1">
          <mxGeometry width="50" height="50" relative="1" as="geometry">
            <mxPoint x="751" y="957" as="sourcePoint" />
            <mxPoint x="831" y="957" as="targetPoint" />
            <Array as="points">
              <mxPoint x="751" y="942" />
              <mxPoint x="751" y="924" />
              <mxPoint x="791" y="924" />
              <mxPoint x="831" y="924" />
            </Array>
          </mxGeometry>
        </mxCell>
        <mxCell id="8xq6pTCcTXYKqQCNeDjy-165" value="" style="verticalLabelPosition=bottom;html=1;verticalAlign=top;align=center;shape=mxgraph.floorplan.windowBow;strokeWidth=1;direction=east;" vertex="1" parent="1">
          <mxGeometry x="83" y="928" width="24" height="48" as="geometry" />
        </mxCell>
        <mxCell id="8xq6pTCcTXYKqQCNeDjy-166" value="" style="verticalLabelPosition=bottom;html=1;verticalAlign=top;align=center;shape=mxgraph.floorplan.windowBow;strokeWidth=1;direction=west;" vertex="1" parent="1">
          <mxGeometry x="147" y="941" width="24" height="48" as="geometry" />
        </mxCell>
        <mxCell id="8xq6pTCcTXYKqQCNeDjy-167" value="DIR" style="text;html=1;strokeColor=none;fillColor=none;align=center;verticalAlign=middle;whiteSpace=wrap;rounded=0;fontFamily=Helvetica;fontSize=11;fontColor=default;" vertex="1" parent="1">
          <mxGeometry x="137" y="929" width="40" height="20" as="geometry" />
        </mxCell>
        <mxCell id="8xq6pTCcTXYKqQCNeDjy-168" value="tFP2.EN" style="text;html=1;strokeColor=none;fillColor=none;align=center;verticalAlign=middle;whiteSpace=wrap;rounded=0;fontFamily=Helvetica;fontSize=11;fontColor=default;" vertex="1" parent="1">
          <mxGeometry x="765" y="932" width="47" height="20" as="geometry" />
        </mxCell>
        <mxCell id="8xq6pTCcTXYKqQCNeDjy-169" value="" style="endArrow=none;html=1;rounded=0;" edge="1" parent="1">
          <mxGeometry width="50" height="50" relative="1" as="geometry">
            <mxPoint x="31.999999999999773" y="1022" as="sourcePoint" />
            <mxPoint x="832" y="1022" as="targetPoint" />
          </mxGeometry>
        </mxCell>
        <mxCell id="8xq6pTCcTXYKqQCNeDjy-170" value="" style="endArrow=none;html=1;rounded=0;labelBackgroundColor=default;fontFamily=Helvetica;fontSize=11;fontColor=default;startSize=3;endSize=3;sourcePerimeterSpacing=0;strokeColor=default;shape=connector;jumpStyle=none;jumpSize=6;" edge="1" parent="1">
          <mxGeometry width="50" height="50" relative="1" as="geometry">
            <mxPoint x="751" y="1020.9999999999998" as="sourcePoint" />
            <mxPoint x="831" y="1020.9999999999998" as="targetPoint" />
            <Array as="points">
              <mxPoint x="751" y="1006" />
              <mxPoint x="751" y="988" />
              <mxPoint x="791" y="988" />
              <mxPoint x="831" y="988" />
            </Array>
          </mxGeometry>
        </mxCell>
        <mxCell id="8xq6pTCcTXYKqQCNeDjy-171" value="tFP2.EN" style="text;html=1;strokeColor=none;fillColor=none;align=center;verticalAlign=middle;whiteSpace=wrap;rounded=0;fontFamily=Helvetica;fontSize=11;fontColor=default;" vertex="1" parent="1">
          <mxGeometry x="139" y="993" width="40" height="20" as="geometry" />
        </mxCell>
        <mxCell id="8xq6pTCcTXYKqQCNeDjy-172" value="FP2" style="text;html=1;strokeColor=none;fillColor=none;align=center;verticalAlign=middle;whiteSpace=wrap;rounded=0;fontFamily=Helvetica;fontSize=11;fontColor=default;" vertex="1" parent="1">
          <mxGeometry x="765" y="996" width="47" height="20" as="geometry" />
        </mxCell>
        <mxCell id="8xq6pTCcTXYKqQCNeDjy-173" value="" style="endArrow=none;html=1;rounded=0;" edge="1" parent="1">
          <mxGeometry width="50" height="50" relative="1" as="geometry">
            <mxPoint x="96" y="1022" as="sourcePoint" />
            <mxPoint x="224" y="1022" as="targetPoint" />
            <Array as="points">
              <mxPoint x="96" y="1067" />
              <mxPoint x="224" y="1067" />
            </Array>
          </mxGeometry>
        </mxCell>
        <mxCell id="8xq6pTCcTXYKqQCNeDjy-174" value="tFP2.DL" style="text;html=1;strokeColor=none;fillColor=none;align=center;verticalAlign=middle;whiteSpace=wrap;rounded=0;fontFamily=Helvetica;fontSize=11;fontColor=default;" vertex="1" parent="1">
          <mxGeometry x="137" y="1036" width="47" height="20" as="geometry" />
        </mxCell>
        <mxCell id="8xq6pTCcTXYKqQCNeDjy-175" value="" style="verticalLabelPosition=bottom;html=1;verticalAlign=top;align=center;shape=mxgraph.floorplan.windowBow;strokeWidth=1;direction=east;" vertex="1" parent="1">
          <mxGeometry x="147" y="991" width="24" height="48" as="geometry" />
        </mxCell>
        <mxCell id="8xq6pTCcTXYKqQCNeDjy-176" value="BL1" style="text;html=1;strokeColor=none;fillColor=none;align=center;verticalAlign=middle;whiteSpace=wrap;rounded=0;fontFamily=Helvetica;fontSize=11;fontColor=default;" vertex="1" parent="1">
          <mxGeometry x="204" y="927" width="40" height="20" as="geometry" />
        </mxCell>
        <mxCell id="8xq6pTCcTXYKqQCNeDjy-177" value="" style="verticalLabelPosition=bottom;html=1;verticalAlign=top;align=center;shape=mxgraph.floorplan.windowBow;strokeWidth=1;direction=east;" vertex="1" parent="1">
          <mxGeometry x="212" y="927" width="24" height="48" as="geometry" />
        </mxCell>
        <mxCell id="8xq6pTCcTXYKqQCNeDjy-178" value="RLMR-M" style="text;html=1;strokeColor=none;fillColor=none;align=center;verticalAlign=middle;whiteSpace=wrap;rounded=0;fontFamily=Helvetica;fontSize=11;fontColor=default;" vertex="1" parent="1">
          <mxGeometry x="264" y="928" width="52" height="20" as="geometry" />
        </mxCell>
        <mxCell id="8xq6pTCcTXYKqQCNeDjy-179" value="" style="verticalLabelPosition=bottom;html=1;verticalAlign=top;align=center;shape=mxgraph.floorplan.windowBow;strokeWidth=1;direction=west;" vertex="1" parent="1">
          <mxGeometry x="275" y="941" width="24" height="48" as="geometry" />
        </mxCell>
        <mxCell id="8xq6pTCcTXYKqQCNeDjy-180" value="tRLMRA-DL" style="text;html=1;strokeColor=none;fillColor=none;align=center;verticalAlign=middle;whiteSpace=wrap;rounded=0;fontFamily=Helvetica;fontSize=11;fontColor=default;" vertex="1" parent="1">
          <mxGeometry x="324" y="928" width="68" height="20" as="geometry" />
        </mxCell>
        <mxCell id="8xq6pTCcTXYKqQCNeDjy-181" value="" style="verticalLabelPosition=bottom;html=1;verticalAlign=top;align=center;shape=mxgraph.floorplan.windowBow;strokeWidth=1;direction=west;" vertex="1" parent="1">
          <mxGeometry x="339" y="941" width="24" height="48" as="geometry" />
        </mxCell>
        <mxCell id="8xq6pTCcTXYKqQCNeDjy-182" value="EH3" style="text;html=1;strokeColor=none;fillColor=none;align=center;verticalAlign=middle;whiteSpace=wrap;rounded=0;fontFamily=Helvetica;fontSize=11;fontColor=default;" vertex="1" parent="1">
          <mxGeometry x="426" y="928" width="40" height="20" as="geometry" />
        </mxCell>
        <mxCell id="8xq6pTCcTXYKqQCNeDjy-183" value="" style="verticalLabelPosition=bottom;html=1;verticalAlign=top;align=center;shape=mxgraph.floorplan.windowBow;strokeWidth=1;direction=east;" vertex="1" parent="1">
          <mxGeometry x="434" y="927" width="24" height="48" as="geometry" />
        </mxCell>
        <mxCell id="8xq6pTCcTXYKqQCNeDjy-184" value="FP1" style="text;html=1;strokeColor=none;fillColor=none;align=center;verticalAlign=middle;whiteSpace=wrap;rounded=0;fontFamily=Helvetica;fontSize=11;fontColor=default;" vertex="1" parent="1">
          <mxGeometry x="523" y="928" width="40" height="20" as="geometry" />
        </mxCell>
        <mxCell id="8xq6pTCcTXYKqQCNeDjy-185" value="" style="verticalLabelPosition=bottom;html=1;verticalAlign=top;align=center;shape=mxgraph.floorplan.windowBow;strokeWidth=1;direction=east;" vertex="1" parent="1">
          <mxGeometry x="531" y="927" width="24" height="48" as="geometry" />
        </mxCell>
        <mxCell id="8xq6pTCcTXYKqQCNeDjy-186" value="EH2" style="text;html=1;strokeColor=none;fillColor=none;align=center;verticalAlign=middle;whiteSpace=wrap;rounded=0;fontFamily=Helvetica;fontSize=11;fontColor=default;" vertex="1" parent="1">
          <mxGeometry x="651" y="928" width="40" height="20" as="geometry" />
        </mxCell>
        <mxCell id="8xq6pTCcTXYKqQCNeDjy-187" value="" style="verticalLabelPosition=bottom;html=1;verticalAlign=top;align=center;shape=mxgraph.floorplan.windowBow;strokeWidth=1;direction=east;" vertex="1" parent="1">
          <mxGeometry x="659" y="927" width="24" height="48" as="geometry" />
        </mxCell>
        <mxCell id="8xq6pTCcTXYKqQCNeDjy-188" value="EH1" style="text;html=1;strokeColor=none;fillColor=none;align=center;verticalAlign=middle;whiteSpace=wrap;rounded=0;fontFamily=Helvetica;fontSize=11;fontColor=default;" vertex="1" parent="1">
          <mxGeometry x="587" y="929" width="40" height="20" as="geometry" />
        </mxCell>
        <mxCell id="8xq6pTCcTXYKqQCNeDjy-189" value="" style="verticalLabelPosition=bottom;html=1;verticalAlign=top;align=center;shape=mxgraph.floorplan.windowBow;strokeWidth=1;direction=west;" vertex="1" parent="1">
          <mxGeometry x="595" y="941" width="24" height="48" as="geometry" />
        </mxCell>
        <mxCell id="8xq6pTCcTXYKqQCNeDjy-190" value="" style="verticalLabelPosition=bottom;html=1;verticalAlign=top;align=center;shape=mxgraph.floorplan.windowBow;strokeWidth=1;direction=east;" vertex="1" parent="1">
          <mxGeometry x="147" y="1037" width="24" height="48" as="geometry" />
        </mxCell>
        <mxCell id="8xq6pTCcTXYKqQCNeDjy-191" value="" style="endArrow=none;html=1;rounded=0;" edge="1" parent="1">
          <mxGeometry width="50" height="50" relative="1" as="geometry">
            <mxPoint x="31.999999999999773" y="1118" as="sourcePoint" />
            <mxPoint x="832" y="1118" as="targetPoint" />
          </mxGeometry>
        </mxCell>
        <mxCell id="8xq6pTCcTXYKqQCNeDjy-192" value="TR" style="text;html=1;strokeColor=none;fillColor=none;align=center;verticalAlign=middle;whiteSpace=wrap;rounded=0;fontFamily=Helvetica;fontSize=11;fontColor=default;" vertex="1" parent="1">
          <mxGeometry x="75" y="1088" width="40" height="20" as="geometry" />
        </mxCell>
        <mxCell id="8xq6pTCcTXYKqQCNeDjy-193" value="" style="endArrow=none;html=1;rounded=0;labelBackgroundColor=default;fontFamily=Helvetica;fontSize=11;fontColor=default;startSize=3;endSize=3;sourcePerimeterSpacing=0;strokeColor=default;shape=connector;jumpStyle=none;jumpSize=6;" edge="1" parent="1">
          <mxGeometry width="50" height="50" relative="1" as="geometry">
            <mxPoint x="751" y="1118" as="sourcePoint" />
            <mxPoint x="831" y="1118" as="targetPoint" />
            <Array as="points">
              <mxPoint x="751" y="1103" />
              <mxPoint x="751" y="1085" />
              <mxPoint x="791" y="1085" />
              <mxPoint x="831" y="1085" />
            </Array>
          </mxGeometry>
        </mxCell>
        <mxCell id="8xq6pTCcTXYKqQCNeDjy-194" value="" style="verticalLabelPosition=bottom;html=1;verticalAlign=top;align=center;shape=mxgraph.floorplan.windowBow;strokeWidth=1;direction=east;" vertex="1" parent="1">
          <mxGeometry x="83" y="1088" width="24" height="48" as="geometry" />
        </mxCell>
        <mxCell id="8xq6pTCcTXYKqQCNeDjy-195" value="" style="verticalLabelPosition=bottom;html=1;verticalAlign=top;align=center;shape=mxgraph.floorplan.windowBow;strokeWidth=1;direction=west;" vertex="1" parent="1">
          <mxGeometry x="147" y="1101" width="24" height="48" as="geometry" />
        </mxCell>
        <mxCell id="8xq6pTCcTXYKqQCNeDjy-196" value="DIR" style="text;html=1;strokeColor=none;fillColor=none;align=center;verticalAlign=middle;whiteSpace=wrap;rounded=0;fontFamily=Helvetica;fontSize=11;fontColor=default;" vertex="1" parent="1">
          <mxGeometry x="137" y="1089" width="40" height="20" as="geometry" />
        </mxCell>
        <mxCell id="8xq6pTCcTXYKqQCNeDjy-197" value="tFP3.EN" style="text;html=1;strokeColor=none;fillColor=none;align=center;verticalAlign=middle;whiteSpace=wrap;rounded=0;fontFamily=Helvetica;fontSize=11;fontColor=default;" vertex="1" parent="1">
          <mxGeometry x="765" y="1092" width="47" height="20" as="geometry" />
        </mxCell>
        <mxCell id="8xq6pTCcTXYKqQCNeDjy-198" value="" style="endArrow=none;html=1;rounded=0;" edge="1" parent="1">
          <mxGeometry width="50" height="50" relative="1" as="geometry">
            <mxPoint x="31.999999999999773" y="1182" as="sourcePoint" />
            <mxPoint x="832" y="1182" as="targetPoint" />
          </mxGeometry>
        </mxCell>
        <mxCell id="8xq6pTCcTXYKqQCNeDjy-199" value="" style="endArrow=none;html=1;rounded=0;labelBackgroundColor=default;fontFamily=Helvetica;fontSize=11;fontColor=default;startSize=3;endSize=3;sourcePerimeterSpacing=0;strokeColor=default;shape=connector;jumpStyle=none;jumpSize=6;" edge="1" parent="1">
          <mxGeometry width="50" height="50" relative="1" as="geometry">
            <mxPoint x="751" y="1181.9999999999998" as="sourcePoint" />
            <mxPoint x="831" y="1181.9999999999998" as="targetPoint" />
            <Array as="points">
              <mxPoint x="751" y="1167" />
              <mxPoint x="751" y="1149" />
              <mxPoint x="791" y="1149" />
              <mxPoint x="831" y="1149" />
            </Array>
          </mxGeometry>
        </mxCell>
        <mxCell id="8xq6pTCcTXYKqQCNeDjy-200" value="tFP3.EN" style="text;html=1;strokeColor=none;fillColor=none;align=center;verticalAlign=middle;whiteSpace=wrap;rounded=0;fontFamily=Helvetica;fontSize=11;fontColor=default;" vertex="1" parent="1">
          <mxGeometry x="139" y="1153" width="40" height="20" as="geometry" />
        </mxCell>
        <mxCell id="8xq6pTCcTXYKqQCNeDjy-201" value="FP3" style="text;html=1;strokeColor=none;fillColor=none;align=center;verticalAlign=middle;whiteSpace=wrap;rounded=0;fontFamily=Helvetica;fontSize=11;fontColor=default;" vertex="1" parent="1">
          <mxGeometry x="765" y="1156" width="47" height="20" as="geometry" />
        </mxCell>
        <mxCell id="8xq6pTCcTXYKqQCNeDjy-202" value="" style="endArrow=none;html=1;rounded=0;" edge="1" parent="1">
          <mxGeometry width="50" height="50" relative="1" as="geometry">
            <mxPoint x="96" y="1183" as="sourcePoint" />
            <mxPoint x="224" y="1183" as="targetPoint" />
            <Array as="points">
              <mxPoint x="96" y="1229" />
              <mxPoint x="224" y="1229" />
            </Array>
          </mxGeometry>
        </mxCell>
        <mxCell id="8xq6pTCcTXYKqQCNeDjy-203" value="tFP3.DL" style="text;html=1;strokeColor=none;fillColor=none;align=center;verticalAlign=middle;whiteSpace=wrap;rounded=0;fontFamily=Helvetica;fontSize=11;fontColor=default;" vertex="1" parent="1">
          <mxGeometry x="137" y="1200" width="47" height="20" as="geometry" />
        </mxCell>
        <mxCell id="8xq6pTCcTXYKqQCNeDjy-204" value="" style="verticalLabelPosition=bottom;html=1;verticalAlign=top;align=center;shape=mxgraph.floorplan.windowBow;strokeWidth=1;direction=east;" vertex="1" parent="1">
          <mxGeometry x="147" y="1151" width="24" height="48" as="geometry" />
        </mxCell>
        <mxCell id="8xq6pTCcTXYKqQCNeDjy-205" value="BL1" style="text;html=1;strokeColor=none;fillColor=none;align=center;verticalAlign=middle;whiteSpace=wrap;rounded=0;fontFamily=Helvetica;fontSize=11;fontColor=default;" vertex="1" parent="1">
          <mxGeometry x="204" y="1087" width="40" height="20" as="geometry" />
        </mxCell>
        <mxCell id="8xq6pTCcTXYKqQCNeDjy-206" value="" style="verticalLabelPosition=bottom;html=1;verticalAlign=top;align=center;shape=mxgraph.floorplan.windowBow;strokeWidth=1;direction=east;" vertex="1" parent="1">
          <mxGeometry x="212" y="1087" width="24" height="48" as="geometry" />
        </mxCell>
        <mxCell id="8xq6pTCcTXYKqQCNeDjy-207" value="RLMR-M" style="text;html=1;strokeColor=none;fillColor=none;align=center;verticalAlign=middle;whiteSpace=wrap;rounded=0;fontFamily=Helvetica;fontSize=11;fontColor=default;" vertex="1" parent="1">
          <mxGeometry x="264" y="1088" width="52" height="20" as="geometry" />
        </mxCell>
        <mxCell id="8xq6pTCcTXYKqQCNeDjy-208" value="" style="verticalLabelPosition=bottom;html=1;verticalAlign=top;align=center;shape=mxgraph.floorplan.windowBow;strokeWidth=1;direction=west;" vertex="1" parent="1">
          <mxGeometry x="275" y="1101" width="24" height="48" as="geometry" />
        </mxCell>
        <mxCell id="8xq6pTCcTXYKqQCNeDjy-209" value="tRLMRA-DL" style="text;html=1;strokeColor=none;fillColor=none;align=center;verticalAlign=middle;whiteSpace=wrap;rounded=0;fontFamily=Helvetica;fontSize=11;fontColor=default;" vertex="1" parent="1">
          <mxGeometry x="324" y="1088" width="68" height="20" as="geometry" />
        </mxCell>
        <mxCell id="8xq6pTCcTXYKqQCNeDjy-210" value="" style="verticalLabelPosition=bottom;html=1;verticalAlign=top;align=center;shape=mxgraph.floorplan.windowBow;strokeWidth=1;direction=west;" vertex="1" parent="1">
          <mxGeometry x="339" y="1101" width="24" height="48" as="geometry" />
        </mxCell>
        <mxCell id="8xq6pTCcTXYKqQCNeDjy-211" value="EH3" style="text;html=1;strokeColor=none;fillColor=none;align=center;verticalAlign=middle;whiteSpace=wrap;rounded=0;fontFamily=Helvetica;fontSize=11;fontColor=default;" vertex="1" parent="1">
          <mxGeometry x="426" y="1088" width="40" height="20" as="geometry" />
        </mxCell>
        <mxCell id="8xq6pTCcTXYKqQCNeDjy-212" value="" style="verticalLabelPosition=bottom;html=1;verticalAlign=top;align=center;shape=mxgraph.floorplan.windowBow;strokeWidth=1;direction=east;" vertex="1" parent="1">
          <mxGeometry x="434" y="1087" width="24" height="48" as="geometry" />
        </mxCell>
        <mxCell id="8xq6pTCcTXYKqQCNeDjy-213" value="FP1" style="text;html=1;strokeColor=none;fillColor=none;align=center;verticalAlign=middle;whiteSpace=wrap;rounded=0;fontFamily=Helvetica;fontSize=11;fontColor=default;" vertex="1" parent="1">
          <mxGeometry x="523" y="1088" width="40" height="20" as="geometry" />
        </mxCell>
        <mxCell id="8xq6pTCcTXYKqQCNeDjy-214" value="" style="verticalLabelPosition=bottom;html=1;verticalAlign=top;align=center;shape=mxgraph.floorplan.windowBow;strokeWidth=1;direction=east;" vertex="1" parent="1">
          <mxGeometry x="531" y="1087" width="24" height="48" as="geometry" />
        </mxCell>
        <mxCell id="8xq6pTCcTXYKqQCNeDjy-215" value="EH1" style="text;html=1;strokeColor=none;fillColor=none;align=center;verticalAlign=middle;whiteSpace=wrap;rounded=0;fontFamily=Helvetica;fontSize=11;fontColor=default;" vertex="1" parent="1">
          <mxGeometry x="587" y="1088" width="40" height="20" as="geometry" />
        </mxCell>
        <mxCell id="8xq6pTCcTXYKqQCNeDjy-216" value="" style="verticalLabelPosition=bottom;html=1;verticalAlign=top;align=center;shape=mxgraph.floorplan.windowBow;strokeWidth=1;direction=east;" vertex="1" parent="1">
          <mxGeometry x="595" y="1087" width="24" height="48" as="geometry" />
        </mxCell>
        <mxCell id="8xq6pTCcTXYKqQCNeDjy-217" value="EH2" style="text;html=1;strokeColor=none;fillColor=none;align=center;verticalAlign=middle;whiteSpace=wrap;rounded=0;fontFamily=Helvetica;fontSize=11;fontColor=default;" vertex="1" parent="1">
          <mxGeometry x="650" y="1089" width="40" height="20" as="geometry" />
        </mxCell>
        <mxCell id="8xq6pTCcTXYKqQCNeDjy-218" value="" style="verticalLabelPosition=bottom;html=1;verticalAlign=top;align=center;shape=mxgraph.floorplan.windowBow;strokeWidth=1;direction=west;" vertex="1" parent="1">
          <mxGeometry x="658" y="1100" width="24" height="48" as="geometry" />
        </mxCell>
        <mxCell id="8xq6pTCcTXYKqQCNeDjy-219" value="" style="verticalLabelPosition=bottom;html=1;verticalAlign=top;align=center;shape=mxgraph.floorplan.windowBow;strokeWidth=1;direction=east;" vertex="1" parent="1">
          <mxGeometry x="147" y="1199" width="24" height="48" as="geometry" />
        </mxCell>
        <mxCell id="8xq6pTCcTXYKqQCNeDjy-227" value="" style="endArrow=none;html=1;rounded=0;" edge="1" parent="1">
          <mxGeometry width="50" height="50" relative="1" as="geometry">
            <mxPoint x="31.999999999999773" y="1278" as="sourcePoint" />
            <mxPoint x="832" y="1278" as="targetPoint" />
          </mxGeometry>
        </mxCell>
        <mxCell id="8xq6pTCcTXYKqQCNeDjy-228" value="" style="endArrow=none;html=1;rounded=0;labelBackgroundColor=default;fontFamily=Helvetica;fontSize=11;fontColor=default;startSize=3;endSize=3;sourcePerimeterSpacing=0;strokeColor=default;shape=connector;jumpStyle=none;jumpSize=6;" edge="1" parent="1">
          <mxGeometry width="50" height="50" relative="1" as="geometry">
            <mxPoint x="751" y="1278" as="sourcePoint" />
            <mxPoint x="831" y="1278" as="targetPoint" />
            <Array as="points">
              <mxPoint x="751" y="1263" />
              <mxPoint x="751" y="1245" />
              <mxPoint x="791" y="1245" />
              <mxPoint x="831" y="1245" />
            </Array>
          </mxGeometry>
        </mxCell>
        <mxCell id="8xq6pTCcTXYKqQCNeDjy-229" value="Y1LMR-M" style="text;html=1;strokeColor=none;fillColor=none;align=center;verticalAlign=middle;whiteSpace=wrap;rounded=0;fontFamily=Helvetica;fontSize=11;fontColor=default;" vertex="1" parent="1">
          <mxGeometry x="135" y="1249" width="53" height="20" as="geometry" />
        </mxCell>
        <mxCell id="8xq6pTCcTXYKqQCNeDjy-230" value="tGE1U.EN" style="text;html=1;strokeColor=none;fillColor=none;align=center;verticalAlign=middle;whiteSpace=wrap;rounded=0;fontFamily=Helvetica;fontSize=11;fontColor=default;" vertex="1" parent="1">
          <mxGeometry x="765" y="1252" width="47" height="20" as="geometry" />
        </mxCell>
        <mxCell id="8xq6pTCcTXYKqQCNeDjy-231" value="" style="endArrow=none;html=1;rounded=0;" edge="1" parent="1">
          <mxGeometry width="50" height="50" relative="1" as="geometry">
            <mxPoint x="96" y="1279" as="sourcePoint" />
            <mxPoint x="224" y="1279" as="targetPoint" />
            <Array as="points">
              <mxPoint x="96" y="1326" />
              <mxPoint x="224" y="1326" />
            </Array>
          </mxGeometry>
        </mxCell>
        <mxCell id="8xq6pTCcTXYKqQCNeDjy-232" value="Y1LMR-A" style="text;html=1;strokeColor=none;fillColor=none;align=center;verticalAlign=middle;whiteSpace=wrap;rounded=0;fontFamily=Helvetica;fontSize=11;fontColor=default;" vertex="1" parent="1">
          <mxGeometry x="133" y="1296" width="55" height="20" as="geometry" />
        </mxCell>
        <mxCell id="8xq6pTCcTXYKqQCNeDjy-233" value="" style="verticalLabelPosition=bottom;html=1;verticalAlign=top;align=center;shape=mxgraph.floorplan.windowBow;strokeWidth=1;direction=east;" vertex="1" parent="1">
          <mxGeometry x="147" y="1247" width="24" height="48" as="geometry" />
        </mxCell>
        <mxCell id="8xq6pTCcTXYKqQCNeDjy-248" value="" style="verticalLabelPosition=bottom;html=1;verticalAlign=top;align=center;shape=mxgraph.floorplan.windowBow;strokeWidth=1;direction=east;" vertex="1" parent="1">
          <mxGeometry x="147" y="1295" width="24" height="48" as="geometry" />
        </mxCell>
        <mxCell id="8xq6pTCcTXYKqQCNeDjy-249" value="" style="endArrow=none;html=1;rounded=0;" edge="1" parent="1">
          <mxGeometry width="50" height="50" relative="1" as="geometry">
            <mxPoint x="31.999999999999773" y="1374" as="sourcePoint" />
            <mxPoint x="832" y="1374" as="targetPoint" />
          </mxGeometry>
        </mxCell>
        <mxCell id="8xq6pTCcTXYKqQCNeDjy-250" value="" style="endArrow=none;html=1;rounded=0;labelBackgroundColor=default;fontFamily=Helvetica;fontSize=11;fontColor=default;startSize=3;endSize=3;sourcePerimeterSpacing=0;strokeColor=default;shape=connector;jumpStyle=none;jumpSize=6;" edge="1" parent="1">
          <mxGeometry width="50" height="50" relative="1" as="geometry">
            <mxPoint x="751" y="1374" as="sourcePoint" />
            <mxPoint x="831" y="1374" as="targetPoint" />
            <Array as="points">
              <mxPoint x="751" y="1359" />
              <mxPoint x="751" y="1341" />
              <mxPoint x="791" y="1341" />
              <mxPoint x="831" y="1341" />
            </Array>
          </mxGeometry>
        </mxCell>
        <mxCell id="8xq6pTCcTXYKqQCNeDjy-251" value="YLMR-M" style="text;html=1;strokeColor=none;fillColor=none;align=center;verticalAlign=middle;whiteSpace=wrap;rounded=0;fontFamily=Helvetica;fontSize=11;fontColor=default;" vertex="1" parent="1">
          <mxGeometry x="135" y="1345" width="53" height="20" as="geometry" />
        </mxCell>
        <mxCell id="8xq6pTCcTXYKqQCNeDjy-252" value="tGEU.EN" style="text;html=1;strokeColor=none;fillColor=none;align=center;verticalAlign=middle;whiteSpace=wrap;rounded=0;fontFamily=Helvetica;fontSize=11;fontColor=default;" vertex="1" parent="1">
          <mxGeometry x="765" y="1348" width="47" height="20" as="geometry" />
        </mxCell>
        <mxCell id="8xq6pTCcTXYKqQCNeDjy-253" value="" style="endArrow=none;html=1;rounded=0;" edge="1" parent="1">
          <mxGeometry width="50" height="50" relative="1" as="geometry">
            <mxPoint x="96" y="1375" as="sourcePoint" />
            <mxPoint x="224" y="1375" as="targetPoint" />
            <Array as="points">
              <mxPoint x="96" y="1422" />
              <mxPoint x="224" y="1422" />
            </Array>
          </mxGeometry>
        </mxCell>
        <mxCell id="8xq6pTCcTXYKqQCNeDjy-254" value="YLMR-A" style="text;html=1;strokeColor=none;fillColor=none;align=center;verticalAlign=middle;whiteSpace=wrap;rounded=0;fontFamily=Helvetica;fontSize=11;fontColor=default;" vertex="1" parent="1">
          <mxGeometry x="133" y="1394" width="55" height="20" as="geometry" />
        </mxCell>
        <mxCell id="8xq6pTCcTXYKqQCNeDjy-255" value="" style="verticalLabelPosition=bottom;html=1;verticalAlign=top;align=center;shape=mxgraph.floorplan.windowBow;strokeWidth=1;direction=east;" vertex="1" parent="1">
          <mxGeometry x="147" y="1343" width="24" height="48" as="geometry" />
        </mxCell>
        <mxCell id="8xq6pTCcTXYKqQCNeDjy-256" value="" style="verticalLabelPosition=bottom;html=1;verticalAlign=top;align=center;shape=mxgraph.floorplan.windowBow;strokeWidth=1;direction=east;" vertex="1" parent="1">
          <mxGeometry x="147" y="1392" width="24" height="48" as="geometry" />
        </mxCell>
        <mxCell id="8xq6pTCcTXYKqQCNeDjy-257" value="" style="endArrow=none;html=1;rounded=0;" edge="1" parent="1">
          <mxGeometry width="50" height="50" relative="1" as="geometry">
            <mxPoint x="31.999999999999773" y="1470" as="sourcePoint" />
            <mxPoint x="832" y="1470" as="targetPoint" />
          </mxGeometry>
        </mxCell>
        <mxCell id="8xq6pTCcTXYKqQCNeDjy-258" value="" style="endArrow=none;html=1;rounded=0;labelBackgroundColor=default;fontFamily=Helvetica;fontSize=11;fontColor=default;startSize=3;endSize=3;sourcePerimeterSpacing=0;strokeColor=default;shape=connector;jumpStyle=none;jumpSize=6;" edge="1" parent="1">
          <mxGeometry width="50" height="50" relative="1" as="geometry">
            <mxPoint x="751" y="1470" as="sourcePoint" />
            <mxPoint x="831" y="1470" as="targetPoint" />
            <Array as="points">
              <mxPoint x="751" y="1455" />
              <mxPoint x="751" y="1437" />
              <mxPoint x="791" y="1437" />
              <mxPoint x="831" y="1437" />
            </Array>
          </mxGeometry>
        </mxCell>
        <mxCell id="8xq6pTCcTXYKqQCNeDjy-259" value="GLMR-M" style="text;html=1;strokeColor=none;fillColor=none;align=center;verticalAlign=middle;whiteSpace=wrap;rounded=0;fontFamily=Helvetica;fontSize=11;fontColor=default;" vertex="1" parent="1">
          <mxGeometry x="135" y="1441" width="53" height="20" as="geometry" />
        </mxCell>
        <mxCell id="8xq6pTCcTXYKqQCNeDjy-260" value="tGNU.EN" style="text;html=1;strokeColor=none;fillColor=none;align=center;verticalAlign=middle;whiteSpace=wrap;rounded=0;fontFamily=Helvetica;fontSize=11;fontColor=default;" vertex="1" parent="1">
          <mxGeometry x="765" y="1444" width="47" height="20" as="geometry" />
        </mxCell>
        <mxCell id="8xq6pTCcTXYKqQCNeDjy-261" value="" style="endArrow=none;html=1;rounded=0;" edge="1" parent="1">
          <mxGeometry width="50" height="50" relative="1" as="geometry">
            <mxPoint x="96" y="1471" as="sourcePoint" />
            <mxPoint x="224" y="1471" as="targetPoint" />
            <Array as="points">
              <mxPoint x="96" y="1517" />
              <mxPoint x="224" y="1517" />
            </Array>
          </mxGeometry>
        </mxCell>
        <mxCell id="8xq6pTCcTXYKqQCNeDjy-262" value="GLMR-A" style="text;html=1;strokeColor=none;fillColor=none;align=center;verticalAlign=middle;whiteSpace=wrap;rounded=0;fontFamily=Helvetica;fontSize=11;fontColor=default;" vertex="1" parent="1">
          <mxGeometry x="133" y="1487" width="55" height="20" as="geometry" />
        </mxCell>
        <mxCell id="8xq6pTCcTXYKqQCNeDjy-263" value="" style="verticalLabelPosition=bottom;html=1;verticalAlign=top;align=center;shape=mxgraph.floorplan.windowBow;strokeWidth=1;direction=east;" vertex="1" parent="1">
          <mxGeometry x="147" y="1439" width="24" height="48" as="geometry" />
        </mxCell>
        <mxCell id="8xq6pTCcTXYKqQCNeDjy-264" value="" style="verticalLabelPosition=bottom;html=1;verticalAlign=top;align=center;shape=mxgraph.floorplan.windowBow;strokeWidth=1;direction=east;" vertex="1" parent="1">
          <mxGeometry x="147" y="1487" width="24" height="48" as="geometry" />
        </mxCell>
        <mxCell id="8xq6pTCcTXYKqQCNeDjy-265" value="" style="endArrow=none;html=1;rounded=0;" edge="1" parent="1">
          <mxGeometry width="50" height="50" relative="1" as="geometry">
            <mxPoint x="31.999999999999773" y="1566" as="sourcePoint" />
            <mxPoint x="832" y="1566" as="targetPoint" />
          </mxGeometry>
        </mxCell>
        <mxCell id="8xq6pTCcTXYKqQCNeDjy-266" value="" style="endArrow=none;html=1;rounded=0;labelBackgroundColor=default;fontFamily=Helvetica;fontSize=11;fontColor=default;startSize=3;endSize=3;sourcePerimeterSpacing=0;strokeColor=default;shape=connector;jumpStyle=none;jumpSize=6;" edge="1" parent="1">
          <mxGeometry width="50" height="50" relative="1" as="geometry">
            <mxPoint x="751" y="1566" as="sourcePoint" />
            <mxPoint x="831" y="1566" as="targetPoint" />
            <Array as="points">
              <mxPoint x="751" y="1551" />
              <mxPoint x="751" y="1533" />
              <mxPoint x="791" y="1533" />
              <mxPoint x="831" y="1533" />
            </Array>
          </mxGeometry>
        </mxCell>
        <mxCell id="8xq6pTCcTXYKqQCNeDjy-267" value="tGE1U.EN" style="text;html=1;strokeColor=none;fillColor=none;align=center;verticalAlign=middle;whiteSpace=wrap;rounded=0;fontFamily=Helvetica;fontSize=11;fontColor=default;" vertex="1" parent="1">
          <mxGeometry x="135" y="1537" width="53" height="20" as="geometry" />
        </mxCell>
        <mxCell id="8xq6pTCcTXYKqQCNeDjy-268" value="GE1U" style="text;html=1;strokeColor=none;fillColor=none;align=center;verticalAlign=middle;whiteSpace=wrap;rounded=0;fontFamily=Helvetica;fontSize=11;fontColor=default;" vertex="1" parent="1">
          <mxGeometry x="765" y="1540" width="47" height="20" as="geometry" />
        </mxCell>
        <mxCell id="8xq6pTCcTXYKqQCNeDjy-269" value="" style="endArrow=none;html=1;rounded=0;" edge="1" parent="1">
          <mxGeometry width="50" height="50" relative="1" as="geometry">
            <mxPoint x="96" y="1567" as="sourcePoint" />
            <mxPoint x="224" y="1567" as="targetPoint" />
            <Array as="points">
              <mxPoint x="96" y="1613" />
              <mxPoint x="224" y="1613" />
            </Array>
          </mxGeometry>
        </mxCell>
        <mxCell id="8xq6pTCcTXYKqQCNeDjy-270" value="tGE1U.DL" style="text;html=1;strokeColor=none;fillColor=none;align=center;verticalAlign=middle;whiteSpace=wrap;rounded=0;fontFamily=Helvetica;fontSize=11;fontColor=default;" vertex="1" parent="1">
          <mxGeometry x="133" y="1583" width="55" height="20" as="geometry" />
        </mxCell>
        <mxCell id="8xq6pTCcTXYKqQCNeDjy-271" value="" style="verticalLabelPosition=bottom;html=1;verticalAlign=top;align=center;shape=mxgraph.floorplan.windowBow;strokeWidth=1;direction=east;" vertex="1" parent="1">
          <mxGeometry x="147" y="1535" width="24" height="48" as="geometry" />
        </mxCell>
        <mxCell id="8xq6pTCcTXYKqQCNeDjy-272" value="" style="verticalLabelPosition=bottom;html=1;verticalAlign=top;align=center;shape=mxgraph.floorplan.windowBow;strokeWidth=1;direction=east;" vertex="1" parent="1">
          <mxGeometry x="147" y="1583" width="24" height="48" as="geometry" />
        </mxCell>
        <mxCell id="8xq6pTCcTXYKqQCNeDjy-273" value="" style="endArrow=none;html=1;rounded=0;" edge="1" parent="1">
          <mxGeometry width="50" height="50" relative="1" as="geometry">
            <mxPoint x="31.999999999999773" y="1662" as="sourcePoint" />
            <mxPoint x="832" y="1662" as="targetPoint" />
          </mxGeometry>
        </mxCell>
        <mxCell id="8xq6pTCcTXYKqQCNeDjy-274" value="" style="endArrow=none;html=1;rounded=0;labelBackgroundColor=default;fontFamily=Helvetica;fontSize=11;fontColor=default;startSize=3;endSize=3;sourcePerimeterSpacing=0;strokeColor=default;shape=connector;jumpStyle=none;jumpSize=6;" edge="1" parent="1">
          <mxGeometry width="50" height="50" relative="1" as="geometry">
            <mxPoint x="751" y="1662" as="sourcePoint" />
            <mxPoint x="831" y="1662" as="targetPoint" />
            <Array as="points">
              <mxPoint x="751" y="1647" />
              <mxPoint x="751" y="1629" />
              <mxPoint x="791" y="1629" />
              <mxPoint x="831" y="1629" />
            </Array>
          </mxGeometry>
        </mxCell>
        <mxCell id="8xq6pTCcTXYKqQCNeDjy-275" value="tGEU.EN" style="text;html=1;strokeColor=none;fillColor=none;align=center;verticalAlign=middle;whiteSpace=wrap;rounded=0;fontFamily=Helvetica;fontSize=11;fontColor=default;" vertex="1" parent="1">
          <mxGeometry x="135" y="1633" width="53" height="20" as="geometry" />
        </mxCell>
        <mxCell id="8xq6pTCcTXYKqQCNeDjy-276" value="GEU" style="text;html=1;strokeColor=none;fillColor=none;align=center;verticalAlign=middle;whiteSpace=wrap;rounded=0;fontFamily=Helvetica;fontSize=11;fontColor=default;" vertex="1" parent="1">
          <mxGeometry x="765" y="1636" width="47" height="20" as="geometry" />
        </mxCell>
        <mxCell id="8xq6pTCcTXYKqQCNeDjy-277" value="" style="endArrow=none;html=1;rounded=0;" edge="1" parent="1">
          <mxGeometry width="50" height="50" relative="1" as="geometry">
            <mxPoint x="96" y="1663" as="sourcePoint" />
            <mxPoint x="224" y="1663" as="targetPoint" />
            <Array as="points">
              <mxPoint x="96" y="1709" />
              <mxPoint x="224" y="1709" />
            </Array>
          </mxGeometry>
        </mxCell>
        <mxCell id="8xq6pTCcTXYKqQCNeDjy-278" value="tGEU.DL" style="text;html=1;strokeColor=none;fillColor=none;align=center;verticalAlign=middle;whiteSpace=wrap;rounded=0;fontFamily=Helvetica;fontSize=11;fontColor=default;" vertex="1" parent="1">
          <mxGeometry x="133" y="1679" width="55" height="20" as="geometry" />
        </mxCell>
        <mxCell id="8xq6pTCcTXYKqQCNeDjy-279" value="" style="verticalLabelPosition=bottom;html=1;verticalAlign=top;align=center;shape=mxgraph.floorplan.windowBow;strokeWidth=1;direction=east;" vertex="1" parent="1">
          <mxGeometry x="147" y="1631" width="24" height="48" as="geometry" />
        </mxCell>
        <mxCell id="8xq6pTCcTXYKqQCNeDjy-280" value="" style="verticalLabelPosition=bottom;html=1;verticalAlign=top;align=center;shape=mxgraph.floorplan.windowBow;strokeWidth=1;direction=east;" vertex="1" parent="1">
          <mxGeometry x="147" y="1679" width="24" height="48" as="geometry" />
        </mxCell>
        <mxCell id="8xq6pTCcTXYKqQCNeDjy-281" value="" style="endArrow=none;html=1;rounded=0;" edge="1" parent="1">
          <mxGeometry width="50" height="50" relative="1" as="geometry">
            <mxPoint x="31.999999999999773" y="1758" as="sourcePoint" />
            <mxPoint x="832" y="1758" as="targetPoint" />
          </mxGeometry>
        </mxCell>
        <mxCell id="8xq6pTCcTXYKqQCNeDjy-282" value="" style="endArrow=none;html=1;rounded=0;labelBackgroundColor=default;fontFamily=Helvetica;fontSize=11;fontColor=default;startSize=3;endSize=3;sourcePerimeterSpacing=0;strokeColor=default;shape=connector;jumpStyle=none;jumpSize=6;" edge="1" parent="1">
          <mxGeometry width="50" height="50" relative="1" as="geometry">
            <mxPoint x="751" y="1758" as="sourcePoint" />
            <mxPoint x="831" y="1758" as="targetPoint" />
            <Array as="points">
              <mxPoint x="751" y="1743" />
              <mxPoint x="751" y="1725" />
              <mxPoint x="791" y="1725" />
              <mxPoint x="831" y="1725" />
            </Array>
          </mxGeometry>
        </mxCell>
        <mxCell id="8xq6pTCcTXYKqQCNeDjy-283" value="tGNU.EN" style="text;html=1;strokeColor=none;fillColor=none;align=center;verticalAlign=middle;whiteSpace=wrap;rounded=0;fontFamily=Helvetica;fontSize=11;fontColor=default;" vertex="1" parent="1">
          <mxGeometry x="135" y="1729" width="53" height="20" as="geometry" />
        </mxCell>
        <mxCell id="8xq6pTCcTXYKqQCNeDjy-284" value="GNU" style="text;html=1;strokeColor=none;fillColor=none;align=center;verticalAlign=middle;whiteSpace=wrap;rounded=0;fontFamily=Helvetica;fontSize=11;fontColor=default;" vertex="1" parent="1">
          <mxGeometry x="765" y="1732" width="47" height="20" as="geometry" />
        </mxCell>
        <mxCell id="8xq6pTCcTXYKqQCNeDjy-285" value="" style="endArrow=none;html=1;rounded=0;" edge="1" parent="1">
          <mxGeometry width="50" height="50" relative="1" as="geometry">
            <mxPoint x="96" y="1759" as="sourcePoint" />
            <mxPoint x="224" y="1759" as="targetPoint" />
            <Array as="points">
              <mxPoint x="96" y="1805" />
              <mxPoint x="224" y="1805" />
            </Array>
          </mxGeometry>
        </mxCell>
        <mxCell id="8xq6pTCcTXYKqQCNeDjy-286" value="tGNU.DL" style="text;html=1;strokeColor=none;fillColor=none;align=center;verticalAlign=middle;whiteSpace=wrap;rounded=0;fontFamily=Helvetica;fontSize=11;fontColor=default;" vertex="1" parent="1">
          <mxGeometry x="133" y="1776" width="55" height="20" as="geometry" />
        </mxCell>
        <mxCell id="8xq6pTCcTXYKqQCNeDjy-287" value="" style="verticalLabelPosition=bottom;html=1;verticalAlign=top;align=center;shape=mxgraph.floorplan.windowBow;strokeWidth=1;direction=east;" vertex="1" parent="1">
          <mxGeometry x="147" y="1727" width="24" height="48" as="geometry" />
        </mxCell>
        <mxCell id="8xq6pTCcTXYKqQCNeDjy-288" value="" style="verticalLabelPosition=bottom;html=1;verticalAlign=top;align=center;shape=mxgraph.floorplan.windowBow;strokeWidth=1;direction=east;" vertex="1" parent="1">
          <mxGeometry x="147" y="1775" width="24" height="48" as="geometry" />
        </mxCell>
        <mxCell id="8xq6pTCcTXYKqQCNeDjy-289" value="" style="endArrow=none;html=1;rounded=0;" edge="1" parent="1">
          <mxGeometry width="50" height="50" relative="1" as="geometry">
            <mxPoint x="31.999999999999773" y="1853.9999999999995" as="sourcePoint" />
            <mxPoint x="832" y="1853.9999999999995" as="targetPoint" />
          </mxGeometry>
        </mxCell>
        <mxCell id="8xq6pTCcTXYKqQCNeDjy-290" value="" style="endArrow=none;html=1;rounded=0;labelBackgroundColor=default;fontFamily=Helvetica;fontSize=11;fontColor=default;startSize=3;endSize=3;sourcePerimeterSpacing=0;strokeColor=default;shape=connector;jumpStyle=none;jumpSize=6;" edge="1" parent="1">
          <mxGeometry width="50" height="50" relative="1" as="geometry">
            <mxPoint x="751" y="1853.9999999999995" as="sourcePoint" />
            <mxPoint x="831" y="1853.9999999999995" as="targetPoint" />
            <Array as="points">
              <mxPoint x="751" y="1839" />
              <mxPoint x="751" y="1821" />
              <mxPoint x="791" y="1821" />
              <mxPoint x="831" y="1821" />
            </Array>
          </mxGeometry>
        </mxCell>
        <mxCell id="8xq6pTCcTXYKqQCNeDjy-291" value="RLMR-A" style="text;html=1;strokeColor=none;fillColor=none;align=center;verticalAlign=middle;whiteSpace=wrap;rounded=0;fontFamily=Helvetica;fontSize=11;fontColor=default;" vertex="1" parent="1">
          <mxGeometry x="71" y="1825" width="53" height="20" as="geometry" />
        </mxCell>
        <mxCell id="8xq6pTCcTXYKqQCNeDjy-292" value="tRLMRA.EN" style="text;html=1;strokeColor=none;fillColor=none;align=center;verticalAlign=middle;whiteSpace=wrap;rounded=0;fontFamily=Helvetica;fontSize=11;fontColor=default;" vertex="1" parent="1">
          <mxGeometry x="765" y="1828" width="47" height="20" as="geometry" />
        </mxCell>
        <mxCell id="8xq6pTCcTXYKqQCNeDjy-295" value="" style="verticalLabelPosition=bottom;html=1;verticalAlign=top;align=center;shape=mxgraph.floorplan.windowBow;strokeWidth=1;direction=east;" vertex="1" parent="1">
          <mxGeometry x="83" y="1823" width="24" height="48" as="geometry" />
        </mxCell>
      </root>
    </mxGraphModel>
  </diagram>
</mxfile>
